<?xml version="1.0" standalone="no"?>
<!DOCTYPE svg PUBLIC "-//W3C//DTD SVG 1.1//EN" "http://www.w3.org/Graphics/SVG/1.1/DTD/svg11.dtd" >
<svg xmlns="http://www.w3.org/2000/svg">
<metadata>
<json>
<![CDATA[
{
	"fontFamily": "icomoon",
	"majorVersion": 1,
	"minorVersion": 4.2,
	"fontURL": "https://github.com/tailwindlabs/heroicons",
	"description": "heroicons by steveschoger\nFont generated by IcoMoon.",
	"copyright": "",
	"license": "MIT",
	"licenseURL": "https://github.com/tailwindlabs/heroicons/blob/master/LICENSE",
	"designerURL": "https://twitter.com/steveschoger",
	"designer": "steveschoger",
	"version": "Version 1.4",
	"fontId": "icomoon",
	"psName": "icomoon",
	"subFamily": "Regular",
	"fullName": "icomoon"
}
]]>
</json>
</metadata>
<defs>
<font id="icomoon" horiz-adv-x="1024">
<font-face units-per-em="1024" ascent="960" descent="-64" />
<missing-glyph horiz-adv-x="1024" />
<glyph unicode="&#x20;" horiz-adv-x="512" d="" />
<glyph unicode="&#x2b;" glyph-name="i-plus" data-tags="plus" d="M512 746.667c23.565 0 42.667-19.103 42.667-42.667v-213.333h213.333c23.565 0 42.667-19.102 42.667-42.667s-19.102-42.667-42.667-42.667h-213.333v-213.333c0-23.565-19.102-42.667-42.667-42.667s-42.667 19.102-42.667 42.667v213.333h-213.333c-23.564 0-42.667 19.102-42.667 42.667s19.103 42.667 42.667 42.667h213.333v213.333c0 23.564 19.102 42.667 42.667 42.667z" />
<glyph unicode="&#x5f;" glyph-name="i-view-list" data-tags="view-list" d="M45.715 758.855c0 28.614 23.197 51.812 51.812 51.812v0h828.953c28.614 0 51.812-23.197 51.812-51.812s-23.197-51.812-51.812-51.812v0h-828.953c-28.614 0-51.812 23.197-51.812 51.812v0zM45.715 551.619c0 28.614 23.197 51.812 51.812 51.812v0h828.953c28.614 0 51.812-23.197 51.812-51.812s-23.197-51.812-51.812-51.812v0h-828.953c-28.614 0-51.812 23.197-51.812 51.812v0zM45.715 344.381c0 28.614 23.197 51.812 51.812 51.812v0h828.953c28.614 0 51.812-23.197 51.812-51.812s-23.197-51.812-51.812-51.812v0h-828.953c-28.614 0-51.812 23.197-51.812 51.812v0zM45.715 137.145c0 28.614 23.197 51.812 51.812 51.812v0h828.953c28.614 0 51.812-23.197 51.812-51.812s-23.197-51.812-51.812-51.812v0h-828.953c-28.614 0-51.812 23.197-51.812 51.812v0z" />
<glyph unicode="&#x2139;" glyph-name="i-circle-info" data-tags="Vector (Stroke)-9" d="M512 857.6c-226.216 0-409.6-183.384-409.6-409.6s183.384-409.6 409.6-409.6v0c226.216 0 409.6 183.384 409.6 409.6s-183.384 409.6-409.6 409.6v0zM149.965 810.035c92.809 93.602 221.448 151.55 363.621 151.55 282.77 0 512-229.23 512-512 0-142.174-57.949-270.812-151.515-363.586l-0.035-0.035c-92.493-91.709-219.853-148.379-360.45-148.379-282.77 0-512 229.23-512 512 0 140.596 56.67 267.957 148.414 360.485l-0.035-0.035zM460.8 652.8c0 28.278 22.922 51.2 51.2 51.2h0.512c28.278 0 51.2-22.922 51.2-51.2s-22.922-51.2-51.2-51.2h-0.512c-28.278 0-51.2 22.922-51.2 51.2zM409.6 448c0 28.278 22.922 51.2 51.2 51.2h51.2c28.278 0 51.2-22.922 51.2-51.2v-153.6c28.278 0 51.2-22.922 51.2-51.2s-22.922-51.2-51.2-51.2h-51.2c-28.278 0-51.2 22.922-51.2 51.2v153.6c-28.278 0-51.2 22.922-51.2 51.2z" />
<glyph unicode="&#x23ef;" glyph-name="i-circle-stop" data-tags="Vector (28)" d="M510.414 856.015c-226.216 0-409.6-183.384-409.6-409.6s183.384-409.6 409.6-409.6v0c226.216 0 409.6 183.384 409.6 409.6s-183.384 409.6-409.6 409.6v0zM148.379 808.45c92.809 93.602 221.448 151.55 363.621 151.55 282.77 0 512-229.23 512-512 0-142.174-57.949-270.812-151.515-363.586l-0.035-0.035c-92.493-91.709-219.853-148.379-360.45-148.379-282.77 0-512 229.23-512 512 0 140.596 56.67 267.957 148.414 360.485l-0.035-0.035zM335.607 621.222c18.531 18.531 44.13 29.993 72.407 29.993h204.8c56.554 0 102.4-45.846 102.4-102.4v0-204.8c0-56.554-45.846-102.4-102.4-102.4v0h-204.8c-0.001 0-0.003 0-0.005 0-56.551 0-102.395 45.844-102.395 102.395 0 0.002 0 0.004 0 0.005v0 204.8c0 28.277 11.462 53.877 29.993 72.407v0zM612.814 548.815h-204.8v-204.8h204.8v204.8z" />
<glyph unicode="&#x23f8;" glyph-name="i-circle-pause" data-tags="Vector (Stroke)-11" d="M510.414 856.015c-226.216 0-409.6-183.384-409.6-409.6s183.384-409.6 409.6-409.6v0c226.216 0 409.6 183.384 409.6 409.6s-183.384 409.6-409.6 409.6v0zM148.379 808.45c92.809 93.602 221.448 151.55 363.621 151.55 282.77 0 512-229.23 512-512 0-142.174-57.949-270.812-151.515-363.586l-0.035-0.035c-92.493-91.709-219.853-148.379-360.45-148.379-282.77 0-512 229.23-512 512 0 140.596 56.67 267.957 148.414 360.485l-0.035-0.035zM408.014 651.215c28.278 0 51.2-22.922 51.2-51.2v-307.2c0-28.278-22.922-51.2-51.2-51.2s-51.2 22.922-51.2 51.2v307.2c0 28.278 22.922 51.2 51.2 51.2zM612.814 651.215c28.278 0 51.2-22.922 51.2-51.2v-307.2c0-28.278-22.922-51.2-51.2-51.2s-51.2 22.922-51.2 51.2v307.2c0 28.278 22.922 51.2 51.2 51.2z" />
<glyph unicode="&#x2611;" glyph-name="i-circle-tick" data-tags="Vector (Stroke)-5" d="M510.414 856.015c-226.216 0-409.6-183.384-409.6-409.6s183.384-409.6 409.6-409.6v0c226.216 0 409.6 183.384 409.6 409.6s-183.384 409.6-409.6 409.6v0zM148.379 808.45c92.809 93.602 221.448 151.55 363.621 151.55 282.77 0 512-229.23 512-512 0-142.174-57.949-270.812-151.515-363.586l-0.035-0.035c-92.493-91.709-219.853-148.379-360.45-148.379-282.77 0-512 229.23-512 512 0 140.596 56.67 267.957 148.414 360.485l-0.035-0.035zM700.212 585.024c19.994-19.994 19.994-52.413 0-72.407l-204.8-204.8c-19.994-19.994-52.413-19.994-72.407 0l-102.4 102.4c-19.994 19.994-19.994 52.413 0 72.407s52.413 19.994 72.407 0l66.202-66.202 168.596 168.602c19.994 19.988 52.413 19.988 72.407 0z" />
<glyph unicode="&#x2639;" glyph-name="i-emoji-sad" data-tags="Vector (Stroke)-8 (1)" d="M506.572 852.148c-226.216 0-409.6-183.384-409.6-409.6s183.384-409.6 409.6-409.6v0c226.216 0 409.6 183.384 409.6 409.6s-183.384 409.6-409.6 409.6v0zM144.537 804.583c93.085 95.407 222.931 154.578 366.598 154.578 282.77 0 512-229.23 512-512 0-143.666-59.172-273.512-154.474-366.496l-0.104-0.102c-91.979-88.925-217.436-143.724-355.692-143.724-282.77 0-512 229.23-512 512 0 138.256 54.799 263.713 143.863 355.836l-0.138-0.144zM301.772 544.948c0 28.277 22.923 51.2 51.2 51.2v0h0.512c28.277 0 51.2-22.923 51.2-51.2s-22.923-51.2-51.2-51.2v0h-0.512c-28.277 0-51.2 22.923-51.2 51.2v0zM608.972 544.948c0 28.277 22.923 51.2 51.2 51.2v0h0.512c28.277 0 51.2-22.923 51.2-51.2s-22.923-51.2-51.2-51.2v0h-0.512c-28.277 0-51.2 22.923-51.2 51.2v0zM506.572 237.748c-42.418-0.024-80.812-17.239-108.594-45.054l-0.002-0.002c-9.266-9.26-22.063-14.986-36.198-14.986-28.283 0-51.21 22.928-51.21 51.21 0 14.148 5.737 26.955 15.012 36.224v0c46.324 46.311 110.313 74.953 180.992 74.953s134.668-28.643 180.993-74.954l-0.001 0.001c9.644-9.323 15.631-22.376 15.631-36.828 0-28.277-22.923-51.2-51.2-51.2-14.451 0-27.504 5.987-36.814 15.616l-0.014 0.014c-27.793 27.775-66.179 44.954-108.577 44.954-0.007 0-0.013 0-0.020 0h0.001z" />
<glyph unicode="&#x26aa;" glyph-name="i-circle-dots" data-tags="Vector (Stroke)-6" d="M510.414 856.015c-226.216 0-409.6-183.384-409.6-409.6s183.384-409.6 409.6-409.6v0c226.216 0 409.6 183.384 409.6 409.6s-183.384 409.6-409.6 409.6v0zM148.379 808.45c92.809 93.602 221.448 151.55 363.621 151.55 282.77 0 512-229.23 512-512 0-142.174-57.949-270.812-151.515-363.586l-0.035-0.035c-92.493-91.709-219.853-148.379-360.45-148.379-282.77 0-512 229.23-512 512 0 140.596 56.67 267.957 148.414 360.485l-0.035-0.035zM254.414 446.415c0 28.278 22.922 51.2 51.2 51.2h0.512c28.278 0 51.2-22.922 51.2-51.2s-22.922-51.2-51.2-51.2h-0.512c-28.278 0-51.2 22.922-51.2 51.2zM459.214 446.415c0 28.278 22.922 51.2 51.2 51.2h0.512c28.278 0 51.2-22.922 51.2-51.2s-22.922-51.2-51.2-51.2h-0.512c-28.278 0-51.2 22.922-51.2 51.2zM664.014 446.415c0 28.278 22.922 51.2 51.2 51.2h0.512c28.278 0 51.2-22.922 51.2-51.2s-22.922-51.2-51.2-51.2h-0.512c-28.278 0-51.2 22.922-51.2 51.2z" />
<glyph unicode="&#x26ab;" glyph-name="i-dots-horizontal" data-tags="dots-horizontal" d="M33.325 528.452c21.337 21.339 50.277 33.325 80.453 33.325s59.116-11.987 80.453-33.325c21.337-21.339 33.325-50.279 33.325-80.452s-11.987-59.113-33.325-80.452c-21.337-21.339-50.277-33.325-80.453-33.325s-59.116 11.987-80.453 33.325c-21.337 21.339-33.325 50.279-33.325 80.452s11.987 59.113 33.325 80.452zM431.548 528.452c21.339 21.339 50.279 33.325 80.452 33.325s59.113-11.987 80.452-33.325c21.339-21.339 33.325-50.279 33.325-80.452s-11.987-59.113-33.325-80.452c-21.339-21.339-50.279-33.325-80.452-33.325s-59.113 11.987-80.452 33.325c-21.339 21.339-33.325 50.279-33.325 80.452s11.987 59.113 33.325 80.452zM829.77 528.452c21.339 21.339 50.279 33.325 80.452 33.325s59.113-11.987 80.452-33.325c21.339-21.339 33.325-50.279 33.325-80.452s-11.987-59.113-33.325-80.452c-21.339-21.339-50.279-33.325-80.452-33.325s-59.113 11.987-80.452 33.325c-21.339 21.339-33.325 50.279-33.325 80.452s11.987 59.113 33.325 80.452z" />
<glyph unicode="&#x2705;" glyph-name="i-check" data-tags="check" d="M884.098 721.671c19.205-19.205 19.205-48.013 0-67.217l-480.126-480.126c-8.654-8.487-20.52-13.725-33.609-13.725s-24.956 5.238-33.617 13.732l-192.043 192.043c-11.714 8.853-19.205 22.757-19.205 38.41 0 26.516 21.497 48.013 48.013 48.013 15.654 0 29.558-7.491 38.323-19.084l0.088-0.12 158.442-158.442 446.517 446.517c8.654 8.487 20.52 13.725 33.609 13.725s24.956-5.238 33.617-13.732l-0.008 0.008z" />
<glyph unicode="&#x270f;" glyph-name="i-pencil" data-tags="pencil" d="M810.096 814.888c37.603-0.508 67.89-31.11 67.89-68.785 0-19.914-8.461-37.851-21.985-50.413l-0.043-0.040-32.103-36.688-100.895 100.895 36.688 36.688c13.758 9.172 32.103 18.345 50.447 18.345zM924.749 631.444c29.342 29.342 47.491 69.878 47.491 114.653 0 89.549-72.594 162.143-162.143 162.143-44.775 0-85.31-18.148-114.653-47.491l-68.791-68.791-559.504-564.090c-8.344-8.182-13.573-19.514-13.758-32.069v-160.548c0-27.517 18.345-45.861 45.861-45.861h160.513c13.758 0 22.93 0 32.103 13.758l632.882 628.295zM759.649 594.755l-522.815-513.643h-91.722v91.722l513.643 522.815 100.895-100.895z" />
<glyph unicode="&#x2728;" glyph-name="i-sparkles" data-tags="sparkles" d="M168.533 938.667c27.098 0 49.067-21.969 49.067-49.067v0-49.067h49.067c27.098 0 49.067-21.969 49.067-49.067s-21.969-49.067-49.067-49.067v0h-49.067v-49.067c0-27.098-21.969-49.067-49.067-49.067s-49.067 21.969-49.067 49.067v0 49.067h-49.067c-27.098 0-49.067 21.969-49.067 49.067s21.969 49.067 49.067 49.067v0h49.067v49.067c0 27.098 21.969 49.067 49.067 49.067v0zM561.067 938.667c0.037 0 0.081 0 0.126 0 21.48 0 39.734-13.802 46.383-33.022l0.104-0.344 104.512-314.027 258.581-97.152c19.017-7.047 32.326-25.029 32.326-46.123s-13.309-39.075-31.987-46.013l-0.339-0.11-258.581-96.661-104.512-314.027c-6.639-19.762-24.993-33.746-46.613-33.746s-39.975 13.984-46.511 33.399l-0.102 0.347-104.512 314.027-258.581 96.661c-19.017 7.047-32.326 25.029-32.326 46.123s13.309 39.075 31.987 46.013l0.339 0.11 258.581 96.171 104.512 314.027c6.436 20.013 24.85 34.258 46.602 34.347h0.011zM561.067 734.549l-65.749-196.757c-4.829-14.133-15.523-25.148-29.103-30.31l-0.337-0.112-157.013-59.371 157.995-58.88c13.739-5.397 24.533-16.683 29.44-30.912l65.259-196.267 65.749 196.267c4.829 14.133 15.523 25.148 29.103 30.31l0.337 0.112 156.523 59.371-157.995 58.88c-14.011 5.372-24.735 16.579-29.342 30.564l-0.098 0.348-65.259 196.267zM217.6 251.733c27.098 0 49.067-21.969 49.067-49.067v0-49.067h49.067c27.098 0 49.067-21.969 49.067-49.067s-21.969-49.067-49.067-49.067v0h-49.067v-49.067c0-27.098-21.969-49.067-49.067-49.067s-49.067 21.969-49.067 49.067v0 49.067h-49.067c-27.098 0-49.067 21.969-49.067 49.067s21.969 49.067 49.067 49.067v0h49.067v49.067c0 27.098 21.969 49.067 49.067 49.067v0z" />
<glyph unicode="&#x274e;" glyph-name="i-x" data-tags="x" d="M225.091 731.779c7.69 7.542 18.235 12.197 29.867 12.197s22.177-4.655 29.874-12.203l-0.007 0.007 226.133-225.707 226.133 226.133c7.865 9.012 19.371 14.674 32.2 14.674 23.564 0 42.667-19.103 42.667-42.667 0-13.042-5.851-24.717-15.072-32.543l-0.061-0.051-225.28-225.707 226.133-226.133c6.263-7.378 10.072-17.011 10.072-27.533 0-23.564-19.103-42.667-42.667-42.667-10.735 0-20.544 3.965-28.043 10.509l0.051-0.043-226.133 225.28-226.133-226.133c-7.378-6.263-17.011-10.072-27.533-10.072-23.564 0-42.667 19.103-42.667 42.667 0 10.735 3.965 20.544 10.509 28.043l-0.043-0.051 225.28 226.133-226.133 226.133c-7.542 7.69-12.197 18.235-12.197 29.867s4.655 22.177 12.203 29.874l-0.007-0.007z" />
<glyph unicode="&#x2795;" glyph-name="i-circle-add" data-tags="circle add" d="M510.411 856.015c-226.219 0-409.6-183.387-409.6-409.6s183.387-409.6 409.6-409.6v0c226.219 0 409.6 183.387 409.6 409.6s-183.381 409.6-409.6 409.6v0zM148.377 808.45c92.805 93.602 221.445 151.55 363.621 151.55 282.77 0 512-229.23 512-512 0-142.174-57.949-270.812-151.509-363.586l-0.035-0.035c-92.493-91.709-219.853-148.379-360.45-148.379-282.77 0-512 229.23-512 512 0 140.596 56.67 267.963 148.414 360.491l-0.035-0.035zM510.411 651.215c28.277 0 51.2-22.923 51.2-51.2v-102.4h102.4c28.277 0 51.2-22.917 51.2-51.2s-22.923-51.2-51.2-51.2h-102.4v-102.4c0-28.277-22.923-51.2-51.2-51.2s-51.2 22.923-51.2 51.2v102.4h-102.4c-28.283 0-51.2 22.923-51.2 51.2s22.917 51.2 51.2 51.2h102.4v102.4c0 28.277 22.923 51.2 51.2 51.2z" />
<glyph unicode="&#x2796;" glyph-name="i-circle-minus" data-tags="Vector (Stroke)-10" d="M510.414 856.015c-226.216 0-409.6-183.384-409.6-409.6s183.384-409.6 409.6-409.6v0c226.216 0 409.6 183.384 409.6 409.6s-183.384 409.6-409.6 409.6v0zM148.379 808.45c92.809 93.602 221.448 151.55 363.621 151.55 282.77 0 512-229.23 512-512 0-142.174-57.949-270.812-151.515-363.586l-0.035-0.035c-92.493-91.709-219.853-148.379-360.45-148.379-282.77 0-512 229.23-512 512 0 140.596 56.67 267.957 148.414 360.485l-0.035-0.035zM305.614 446.415c0 28.278 22.922 51.2 51.2 51.2h307.2c28.278 0 51.2-22.922 51.2-51.2s-22.922-51.2-51.2-51.2h-307.2c-28.278 0-51.2 22.922-51.2 51.2z" />
<glyph unicode="&#x27a1;" glyph-name="i-cricle-arrow-right" data-tags="Vector (Stroke)-2" d="M510.414 856.015c-226.216 0-409.6-183.384-409.6-409.6s183.384-409.6 409.6-409.6v0c226.216 0 409.6 183.384 409.6 409.6s-183.384 409.6-409.6 409.6v0zM148.379 808.45c92.809 93.602 221.448 151.55 363.621 151.55 282.77 0 512-229.23 512-512 0-142.174-57.949-270.812-151.515-363.586l-0.035-0.035c-92.493-91.709-219.853-148.379-360.45-148.379-282.77 0-512 229.23-512 512 0 140.596 56.67 267.957 148.414 360.485l-0.035-0.035zM525.41 636.219c19.994 19.994 52.413 19.994 72.407 0l153.6-153.6c19.994-19.994 19.994-52.413 0-72.407l-153.6-153.6c-19.994-19.994-52.413-19.994-72.407 0s-19.994 52.413 0 72.407l66.196 66.196h-285.993c-28.278 0-51.2 22.922-51.2 51.2s22.922 51.2 51.2 51.2h285.993l-66.196 66.196c-19.994 19.994-19.994 52.413 0 72.407z" />
<glyph unicode="&#x2b05;" glyph-name="i-circle-arrow-left" data-tags="Vector (Stroke) (6)" d="M512 857.6c-226.216 0-409.6-183.384-409.6-409.6s183.384-409.6 409.6-409.6v0c226.216 0 409.6 183.384 409.6 409.6s-183.384 409.6-409.6 409.6v0zM315.904 921.088c57.941 24.683 125.343 39.031 196.096 39.031 282.836 0 512.119-229.283 512.119-512.119 0-212.082-128.918-394.054-312.664-471.825l-3.359-1.263c-57.941-24.683-125.343-39.031-196.096-39.031-282.836 0-512.119 229.283-512.119 512.119 0 212.082 128.918 394.054 312.664 471.825l3.359 1.263zM497.152 637.44c9.354-9.28 15.145-22.14 15.145-36.352s-5.791-27.072-15.142-36.349l-0.003-0.003-67.072-65.536h286.72c28.277 0 51.2-22.923 51.2-51.2s-22.923-51.2-51.2-51.2v0h-286.208l66.56-66.56c7.516-8.854 12.087-20.413 12.087-33.039 0-28.277-22.923-51.2-51.2-51.2-12.882 0-24.653 4.757-33.652 12.611l0.061-0.052-153.6 153.6c-9.050 9.228-14.636 21.882-14.636 35.84s5.586 26.612 14.644 35.848l153.592 153.592c9.28 9.354 22.14 15.145 36.352 15.145s27.072-5.791 36.349-15.142l0.003-0.003z" />
<glyph unicode="&#x2b06;" glyph-name="i-circle-arrow-up" data-tags="Vector (Stroke)-3" d="M510.414 856.015c-226.216 0-409.6-183.384-409.6-409.6s183.384-409.6 409.6-409.6v0c226.216 0 409.6 183.384 409.6 409.6s-183.384 409.6-409.6 409.6v0zM148.379 808.45c92.809 93.602 221.448 151.55 363.621 151.55 282.77 0 512-229.23 512-512 0-142.174-57.949-270.812-151.515-363.586l-0.035-0.035c-92.493-91.709-219.853-148.379-360.45-148.379-282.77 0-512 229.23-512 512 0 140.596 56.67 267.957 148.414 360.485l-0.035-0.035zM459.214 527.613l-66.196-66.202c-19.994-19.988-52.413-19.988-72.407 0-19.994 19.999-19.994 52.419 0 72.412l153.6 153.6c19.994 19.994 52.413 19.994 72.407 0l153.6-153.6c19.994-19.994 19.994-52.413 0-72.407s-52.413-19.994-72.407 0l-66.196 66.191v-285.993c0-28.278-22.922-51.2-51.2-51.2s-51.2 22.922-51.2 51.2v285.993z" />
<glyph unicode="&#x2b07;" glyph-name="i-circle-arrow-down" data-tags="Vector (Stroke)-1" d="M512.012 857.599c-226.216 0-409.6-183.384-409.6-409.6s183.384-409.6 409.6-409.6v0c226.216 0 409.6 183.384 409.6 409.6s-183.384 409.6-409.6 409.6v0zM316.070 921.036c57.898 24.648 125.247 38.976 195.942 38.976 282.777 0 512.013-229.236 512.013-512.013 0-212.081-128.944-394.046-312.711-471.775l-3.359-1.262c-57.898-24.647-125.247-38.974-195.942-38.974-282.79 0-512.037 229.247-512.037 512.037 0 212.095 128.954 394.071 312.735 471.801l3.36 1.262zM512.012 703.999c28.277 0 51.2-22.923 51.2-51.2v0-286.003l66.202 66.202c9.323 9.644 22.376 15.631 36.828 15.631 28.277 0 51.2-22.923 51.2-51.2 0-14.451-5.987-27.504-15.616-36.814l-153.614-153.614c-9.265-9.262-22.063-14.991-36.198-14.991s-26.934 5.729-36.199 14.991l-153.6 153.6c-9.644 9.323-15.631 22.376-15.631 36.828 0 28.277 22.923 51.2 51.2 51.2 14.451 0 27.504-5.987 36.814-15.616l66.216-66.216v286.003c0 28.277 22.923 51.2 51.2 51.2v0z" />
<glyph unicode="&#xe908;" glyph-name="i-view-grid" data-tags="view-grid" d="M234.667 771.556c-25.528 0-46.223-20.695-46.223-46.223v0-92.444c0-25.528 20.695-46.223 46.223-46.223v0h92.444c25.528 0 46.223 20.695 46.223 46.223v0 92.444c0 25.528-20.695 46.223-46.223 46.223v0h-92.444zM136.676 823.324c25.072 25.102 59.713 40.641 97.984 40.676h92.452c76.583 0 138.667-62.084 138.667-138.667v0-92.444c0-76.583-62.084-138.667-138.667-138.667v0h-92.444c-76.583 0-138.667 62.084-138.667 138.667v0 92.444c0.035 38.277 15.573 72.919 40.674 97.99l0.001 0.001zM696.889 771.556c-25.528 0-46.223-20.695-46.223-46.223v0-92.444c0-25.528 20.695-46.223 46.223-46.223v0h92.444c25.528 0 46.223 20.695 46.223 46.223v0 92.444c0 25.528-20.695 46.223-46.223 46.223v0h-92.444zM598.897 823.324c25.072 25.102 59.713 40.641 97.984 40.676h92.452c76.583 0 138.667-62.084 138.667-138.667v0-92.444c0-76.583-62.084-138.667-138.667-138.667v0h-92.444c-76.583 0-138.667 62.084-138.667 138.667v0 92.444c0.035 38.277 15.573 72.919 40.674 97.99l0.001 0.001zM234.667 309.333c-25.528 0-46.223-20.695-46.223-46.223v0-92.444c0-25.528 20.695-46.223 46.223-46.223v0h92.444c25.528 0 46.223 20.695 46.223 46.223v0 92.444c0 25.528-20.695 46.223-46.223 46.223v0h-92.444zM136.676 361.103c25.072 25.102 59.713 40.641 97.984 40.676h92.452c76.583 0 138.667-62.084 138.667-138.667v0-92.444c0-76.583-62.084-138.667-138.667-138.667v0h-92.444c-76.583 0-138.667 62.084-138.667 138.667v0 92.444c0.035 38.277 15.573 72.919 40.674 97.99l0.001 0.001zM696.889 309.333c-25.528 0-46.223-20.695-46.223-46.223v0-92.444c0-25.528 20.695-46.223 46.223-46.223v0h92.444c25.528 0 46.223 20.695 46.223 46.223v0 92.444c0 25.528-20.695 46.223-46.223 46.223v0h-92.444zM598.897 361.103c25.072 25.102 59.713 40.641 97.984 40.676h92.452c76.583 0 138.667-62.084 138.667-138.667v0-92.444c0-76.583-62.084-138.667-138.667-138.667v0h-92.444c-76.583 0-138.667 62.084-138.667 138.667v0 92.444c0.035 38.277 15.573 72.919 40.674 97.99l0.001 0.001z" />
<glyph unicode="&#xe917;" glyph-name="i-selector" data-tags="selector" d="M473.718 869.098c9.856 9.666 23.374 15.632 38.282 15.632s28.426-5.966 38.292-15.641l218.744-218.744c6.827-9.025 10.936-20.441 10.936-32.812 0-30.203-24.485-54.688-54.688-54.688-12.374 0-23.787 4.109-32.949 11.038l0.137-0.099-180.469 180.469-180.469-180.469c-9.025-6.827-20.441-10.936-32.812-10.936-30.203 0-54.688 24.485-54.688 54.688 0 12.374 4.109 23.787 11.038 32.949l-0.099-0.137 218.751 218.751zM254.968 322.219c9.856 9.666 23.374 15.632 38.282 15.632s28.426-5.966 38.292-15.641l180.462-180.462 180.469 180.469c9.025 6.827 20.441 10.936 32.812 10.936 30.203 0 54.688-24.485 54.688-54.688 0-12.374-4.109-23.787-11.038-32.949l0.099 0.137-218.751-218.751c-9.856-9.666-23.374-15.632-38.282-15.632s-28.426 5.966-38.292 15.641l-218.744 218.744c-9.666 9.856-15.632 23.374-15.632 38.282s5.966 28.426 15.641 38.292l-0.010-0.010z" />
<glyph unicode="&#xe919;" glyph-name="i-reply" data-tags="reply" d="M405.356 850.484c-8.331 8.171-19.756 13.214-32.358 13.214s-24.027-5.043-32.365-13.221l-277.343-277.343c-8.171-8.331-13.214-19.756-13.214-32.358s5.043-24.027 13.221-32.365l277.343-277.343c7.629-5.771 17.277-9.245 27.735-9.245 25.529 0 46.225 20.696 46.225 46.225 0 10.458-3.473 20.106-9.329 27.851l0.085-0.116-198.768 198.768h351.311c178.706 0 323.576-144.87 323.576-323.576v0-92.45c0-25.529 20.696-46.225 46.225-46.225s46.225 20.696 46.225 46.225v0 92.45c0 229.764-186.261 416.025-416.025 416.025v0h-351.311l198.768 198.768c18.49 18.49 18.49 46.225 0 64.715z" />
<glyph unicode="&#xe926;" glyph-name="i-menu-alt" data-tags="menu-alt-4" d="M12.8 669.867c0 33.28 22.187 55.467 55.467 55.467h887.467c30.634 0 55.467-24.833 55.467-55.467s-24.833-55.467-55.467-55.467v0h-887.467c-30.634 0-55.467 24.833-55.467 55.467v0zM12.8 226.133c0 33.28 22.187 55.467 55.467 55.467h887.467c30.634 0 55.467-24.833 55.467-55.467s-24.833-55.467-55.467-55.467v0h-887.467c-30.634 0-55.467 24.833-55.467 55.467v0z" />
<glyph unicode="&#xe927;" glyph-name="i-menu-alt-right" data-tags="menu-alt-3" d="M0 789.334c0 34.133 22.756 56.889 56.889 56.889h910.223c31.419 0 56.889-25.471 56.889-56.889s-25.471-56.889-56.889-56.889v0h-910.223c-31.419 0-56.889 25.471-56.889 56.889v0zM0 448c0 34.133 22.756 56.889 56.889 56.889h910.223c31.419 0 56.889-25.471 56.889-56.889s-25.471-56.889-56.889-56.889v0h-910.223c-31.419 0-56.889 25.471-56.889 56.889v0zM512 106.666c0 34.133 22.756 56.889 56.889 56.889h398.222c31.419 0 56.889-25.471 56.889-56.889s-25.471-56.889-56.889-56.889v0h-398.222c-31.419 0-56.889 25.471-56.889 56.889v0z" />
<glyph unicode="&#xe928;" glyph-name="i-menu-alt-left" data-tags="menu-alt-2" d="M0 789.334c0 34.133 22.756 56.889 56.889 56.889h910.223c31.419 0 56.889-25.471 56.889-56.889s-25.471-56.889-56.889-56.889v0h-910.223c-31.419 0-56.889 25.471-56.889 56.889v0zM0 448c0 34.133 22.756 56.889 56.889 56.889h910.223c31.419 0 56.889-25.471 56.889-56.889s-25.471-56.889-56.889-56.889v0h-910.223c-31.419 0-56.889 25.471-56.889 56.889v0zM0 106.666c0 34.133 22.756 56.889 56.889 56.889h398.222c31.419 0 56.889-25.471 56.889-56.889s-25.471-56.889-56.889-56.889v0h-398.222c-31.419 0-56.889 25.471-56.889 56.889v0z" />
<glyph unicode="&#xe929;" glyph-name="i-menu-alt-justify" data-tags="menu-alt-1" d="M0.001 789.333c0 34.133 22.756 56.889 56.889 56.889h910.221c31.419 0 56.889-25.471 56.889-56.889s-25.471-56.889-56.889-56.889v0h-910.221c-31.419 0-56.889 25.471-56.889 56.889v0zM0.001 448c0 34.133 22.756 56.889 56.889 56.889h455.11c31.419 0 56.889-25.471 56.889-56.889s-25.471-56.889-56.889-56.889v0h-455.11c-31.419 0-56.889 25.471-56.889 56.889v0zM0.001 106.667c0 34.133 22.756 56.889 56.889 56.889h910.221c31.419 0 56.889-25.471 56.889-56.889s-25.471-56.889-56.889-56.889v0h-910.221c-31.419 0-56.889 25.471-56.889 56.889v0z" />
<glyph unicode="&#xe92a;" glyph-name="i-menu" data-tags="menu" d="M0.001 789.333c0 34.133 22.756 56.889 56.889 56.889h910.221c31.419 0 56.889-25.471 56.889-56.889s-25.471-56.889-56.889-56.889v0h-910.221c-31.419 0-56.889 25.471-56.889 56.889v0zM0.001 448c0 34.133 22.756 56.889 56.889 56.889h910.221c31.419 0 56.889-25.471 56.889-56.889s-25.471-56.889-56.889-56.889v0h-910.221c-31.419 0-56.889 25.471-56.889 56.889v0zM0.001 106.667c0 34.133 22.756 56.889 56.889 56.889h910.221c31.419 0 56.889-25.471 56.889-56.889s-25.471-56.889-56.889-56.889v0h-910.221c-31.419 0-56.889 25.471-56.889 56.889v0z" />
<glyph unicode="&#xe92d;" glyph-name="i-logout" data-tags="logout" d="M213.332 796.445c-54.982 0-99.555-44.573-99.555-99.555v0-497.779c0-54.982 44.573-99.555 99.555-99.555v0h199.111c54.982 0 99.555 44.573 99.555 99.555v0 49.779c0 27.492 22.287 49.779 49.779 49.779s49.779-22.287 49.779-49.779v0-49.779c0-109.967-89.144-199.111-199.111-199.111v0h-199.111c-109.967 0-199.111 89.144-199.111 199.111v0 497.779c0 109.967 89.144 199.111 199.111 199.111v0h199.111c109.967 0 199.111-89.144 199.111-199.111v0-49.779c0-27.492-22.287-49.779-49.779-49.779s-49.779 22.287-49.779 49.779v0 49.779c0 54.982-44.573 99.555-99.555 99.555v0h-199.111zM726.043 681.955c8.972 8.798 21.275 14.229 34.845 14.229s25.873-5.431 34.852-14.237l199.104-199.104c19.911-19.911 19.911-49.779 0-69.689l-199.111-199.111c-8.216-6.215-18.605-9.955-29.866-9.955-27.492 0-49.779 22.287-49.779 49.779 0 11.261 3.74 21.65 10.047 29.991l-0.090-0.125 114.489 114.489h-577.421c-27.492 0-49.779 22.287-49.779 49.779s22.287 49.779 49.779 49.779v0h577.421l-114.489 114.489c-8.798 8.972-14.229 21.275-14.229 34.845s5.431 25.873 14.237 34.852l-0.009-0.009z" />
<glyph unicode="&#xe92e;" glyph-name="i-login" data-tags="login" d="M213.333 796.445c-54.982 0-99.555-44.573-99.555-99.555v0-497.779c0-54.982 44.573-99.555 99.555-99.555v0h348.445c54.982 0 99.555 44.573 99.555 99.555v0 49.779c0 27.492 22.287 49.779 49.779 49.779s49.779-22.287 49.779-49.779v0-49.779c0-109.967-89.144-199.111-199.111-199.111v0h-348.445c-109.967 0-199.111 89.144-199.111 199.111v0 497.779c0 109.967 89.144 199.111 199.111 199.111v0h348.445c109.967 0 199.111-89.144 199.111-199.111v0-49.779c0-27.492-22.287-49.779-49.779-49.779s-49.779 22.287-49.779 49.779v0 49.779c0 54.982-44.573 99.555-99.555 99.555v0h-348.445zM497.065 681.955c19.911-19.911 19.911-49.779 0-69.689l-114.489-114.489h577.421c27.492 0 49.779-22.287 49.779-49.779s-22.287-49.779-49.779-49.779v0h-577.421l114.489-114.489c6.215-8.216 9.955-18.605 9.955-29.866 0-27.492-22.287-49.779-49.779-49.779-11.261 0-21.65 3.74-29.991 10.047l0.125-0.090-199.111 199.111c-8.798 8.972-14.229 21.275-14.229 34.845s5.431 25.873 14.237 34.852l199.104 199.104c8.972 8.798 21.275 14.229 34.845 14.229s25.873-5.431 34.852-14.237l-0.009 0.009z" />
<glyph unicode="&#xe932;" glyph-name="i-link" data-tags="link" d="M605.913 882.523c40.58 30.699 91.891 49.173 147.518 49.173 135.787 0 245.864-110.077 245.864-245.864 0-55.627-18.473-106.94-49.621-148.137l0.449 0.619-196.691-196.691c-44.313-43.459-105.075-70.283-172.105-70.283s-127.793 26.824-172.145 70.32l0.040-0.039c-11.998 9.067-19.669 23.307-19.669 39.337 0 27.158 22.015 49.173 49.173 49.173 16.033 0 30.273-7.673 39.25-19.545l0.090-0.123c26.587-26.075 63.046-42.17 103.264-42.17s76.677 16.094 103.287 42.192l-0.025-0.024 196.691 196.691c12.505 21.211 19.893 46.736 19.893 73.985 0 81.472-66.046 147.518-147.518 147.518-27.249 0-52.771-7.388-74.675-20.27l0.692 0.376-54.089-49.173c-8.123-16.623-24.908-27.87-44.319-27.87-27.158 0-49.173 22.015-49.173 49.173 0 18.13 9.812 33.969 24.415 42.495l0.232 0.125 49.173 54.089zM310.875 587.486c44.313 43.459 105.075 70.283 172.105 70.283s127.793-26.824 172.145-70.32l-0.040 0.039c11.998-9.067 19.669-23.307 19.669-39.337 0-27.158-22.015-49.173-49.173-49.173-16.033 0-30.273 7.673-39.25 19.545l-0.090 0.123c-26.587 26.075-63.046 42.17-103.264 42.17s-76.677-16.094-103.287-42.192l0.025 0.024-196.691-196.691c-44.279-26.011-73.535-73.401-73.535-127.625 0-81.472 66.046-147.518 147.518-147.518 54.223 0 101.614 29.255 127.248 72.843l0.376 0.692 54.089 49.173c8.123 16.623 24.908 27.87 44.319 27.87 27.158 0 49.173-22.015 49.173-49.173 0-18.13-9.812-33.969-24.415-42.495l-0.232-0.125-49.173-54.089c-45.392-53.489-112.67-87.207-187.823-87.207-135.787 0-245.864 110.077-245.864 245.864 0 73.927 32.629 140.233 84.268 185.304l0.291 0.248 196.691 196.691z" />
<glyph unicode="&#xe933;" glyph-name="i-light-bulb" data-tags="light-bulb" d="M511.999 938.667c29.44 0 49.067-19.627 49.067-49.067v-49.067c0-27.098-21.969-49.067-49.067-49.067s-49.067 21.969-49.067 49.067v0 49.067c0 29.44 19.627 49.067 49.067 49.067zM168.532 791.467c8.521 7.323 19.687 11.779 31.893 11.779s23.372-4.458 31.958-11.834l-0.065 0.056 39.253-29.44c9.418-9.418 15.243-22.429 15.243-36.8 0-28.744-23.301-52.043-52.043-52.043-14.371 0-27.382 5.825-36.8 15.243v0l-29.44 39.253c-7.323 8.521-11.779 19.687-11.779 31.893s4.458 23.372 11.834 31.958l-0.056-0.065zM855.466 791.467c24.533-14.72 24.533-49.067 0-63.787l-29.44-39.253c-9.418-9.418-22.429-15.243-36.8-15.243-28.744 0-52.043 23.301-52.043 52.043 0 14.371 5.825 27.382 15.243 36.8v0l39.253 34.347c8.021 5.946 18.113 9.517 29.040 9.517 13.574 0 25.863-5.514 34.746-14.423l0.001-0.001zM511.999 644.267c107.202-1.553 193.509-88.822 193.509-196.248 0-53.516-21.42-102.031-56.153-137.436l0.030 0.031-49.067-58.88h-176.64l-49.067 58.88c-34.703 35.375-56.123 83.889-56.123 137.406 0 107.426 86.308 194.693 193.364 196.246l0.147 0.001zM561.066 153.6v-49.067c0-27.098-21.969-49.067-49.067-49.067s-49.067 21.969-49.067 49.067v0 49.067h98.133zM350.079 183.040l14.72-49.067v-29.44c0-81.296 65.904-147.2 147.2-147.2s147.2 65.904 147.2 147.2v0 24.533c0 0.087 0 0.187 0 0.289 0 32.447 13.123 61.828 34.35 83.127l-0.003-0.003 24.533 29.44c54.524 53.473 88.32 127.912 88.32 210.245 0 162.593-131.807 294.4-294.4 294.4s-294.4-131.807-294.4-294.4c0-82.331 33.796-156.769 88.273-210.196l0.047-0.046 24.533-29.44 19.627-29.44zM21.332 448c0 29.44 19.627 49.067 49.067 49.067h49.067c27.098 0 49.067-21.969 49.067-49.067s-21.969-49.067-49.067-49.067v0h-49.067c-27.098 0-49.067 21.969-49.067 49.067v0zM855.466 448c0 29.44 19.627 49.067 49.067 49.067h49.067c27.098 0 49.067-21.969 49.067-49.067s-21.969-49.067-49.067-49.067v0h-49.067c-27.098 0-49.067 21.969-49.067 49.067v0z" />
<glyph unicode="&#xe935;" glyph-name="i-icon-comment" data-tags="icon-comment" d="M14.166 298.3v497.833c0 54.761 44.806 99.567 99.567 99.567h796.533c54.988 0 99.567-44.577 99.567-99.567v0-746.75c-0.394-27.193-22.529-49.083-49.778-49.083-13.574 0-25.881 5.432-34.862 14.243l-184.19 184.19h-627.27c-54.988 0-99.567 44.577-99.567 99.567v0zM910.266 796.133h-796.533v-497.833h647.183c14.936 0 24.891-4.979 34.849-14.936l114.501-114.501v627.27z" />
<glyph unicode="&#xe936;" glyph-name="i-icon-cog" data-tags="icon-cog" d="M367.257 811.094v29.44c0 53.973 44.16 98.133 98.133 98.133h98.133c54.198 0 98.133-43.935 98.133-98.133v0-29.44c37.426-12.725 69.9-29.343 99.415-49.912l-1.282 0.845 19.627 9.813c14.808 9.44 32.857 15.044 52.214 15.044 36.263 0 67.932-19.67 84.92-48.92l0.251-0.47 49.067-88.32c7.358-13.433 11.684-29.431 11.684-46.441 0-36.887-20.351-69.019-50.438-85.785l-0.5-0.256-24.533-14.72c2.374-16.217 3.728-34.935 3.728-53.973s-1.354-37.757-3.974-56.071l0.246 2.098 24.533-14.72c30.587-17.019 50.938-49.153 50.938-86.039 0-17.008-4.327-33.008-11.942-46.954l0.257 0.512-49.067-88.32c-17.239-29.721-48.91-49.391-85.173-49.391-19.357 0-37.408 5.606-52.612 15.282l0.398-0.236-24.533 14.72c-26.881-21.14-57.614-39.266-90.631-53.014l-2.596-0.96v-29.44c0-54.198-43.935-98.133-98.133-98.133v0h-98.133c-54.198 0-98.133 43.935-98.133 98.133v0 29.44c-37.426 12.725-69.9 29.343-99.415 49.912l1.282-0.845-19.627-9.813c-14.808-9.44-32.857-15.044-52.214-15.044-36.263 0-67.932 19.67-84.92 48.92l-0.251 0.47-49.067 88.32c-7.358 13.433-11.684 29.431-11.684 46.441 0 36.887 20.351 69.019 50.438 85.785l0.5 0.256 24.533 14.72c-4.005 21.055-6.298 45.275-6.298 70.029 0 11.621 0.505 23.123 1.493 34.486l-0.104-1.475-24.533 14.72c-30.587 17.019-50.938 49.153-50.938 86.039 0 17.008 4.327 33.008 11.942 46.954l-0.257-0.512 49.067 88.32c17.239 29.721 48.91 49.391 85.173 49.391 19.357 0 37.408-5.606 52.612-15.282l-0.398 0.236 24.533-14.72c28.23 23.291 60.598 43.062 95.563 57.911l2.571 0.969zM313.284 663.894l-29.44-29.44-83.413 49.067-49.067-83.413 83.413-49.067-4.907-34.347c-5.164-20.63-8.126-44.316-8.126-68.693s2.962-48.061 8.547-70.715l-0.42 2.022 4.907-34.347-83.413-49.067 49.067-88.32 83.413 49.067 29.44-24.533c32.308-30.856 71.791-54.492 115.674-68.136l2.086-0.558 34.347-9.813v-98.133h98.133v98.133l34.347 9.813c45.969 14.202 85.452 37.837 117.872 68.801l-0.112-0.107 29.44 24.533 83.413-49.067 49.067 88.32-83.413 49.067 4.907 34.347c5.164 20.63 8.126 44.316 8.126 68.693s-2.962 48.061-8.547 70.715l0.42-2.022-4.907 34.347 83.413 49.067-49.067 88.32-83.413-49.067-29.44 24.533c-32.308 30.856-71.791 54.492-115.674 68.136l-2.086 0.558-34.347 9.813v98.133h-98.133v-98.133l-34.347-9.813c-45.969-14.202-85.452-37.837-117.872-68.801l0.112 0.107zM514.457 251.734c-108.395 0-196.267 87.872-196.267 196.267s87.872 196.267 196.267 196.267v0c108.395 0 196.267-87.872 196.267-196.267s-87.872-196.267-196.267-196.267v0zM514.457 349.868c54.198 0 98.133 43.935 98.133 98.133s-43.935 98.133-98.133 98.133v0c-54.198 0-98.133-43.935-98.133-98.133s43.935-98.133 98.133-98.133v0z" />
<glyph unicode="&#xe937;" glyph-name="i-hashtag" data-tags="hashtag" d="M472.19 895.753c29.856-9.951 44.784-34.833 39.809-59.712l-49.761-189.091h199.043l49.761 208.994c4.809 23.426 25.256 40.794 49.761 40.794 28.027 0 50.746-22.721 50.746-50.746 0-3.522-0.36-6.96-1.041-10.28l0.056 0.327-49.761-189.091h149.282c27.482 0 49.761-22.279 49.761-49.761s-22.279-49.761-49.761-49.761v0h-174.161l-49.761-199.043h124.403c27.482 0 49.761-22.279 49.761-49.761s-22.279-49.761-49.761-49.761v0h-149.282l-49.761-208.994c-4.809-23.426-25.256-40.794-49.761-40.794-28.027 0-50.746 22.721-50.746 50.746 0 3.522 0.36 6.96 1.041 10.28l-0.056-0.327 49.761 189.091h-199.043l-49.761-208.994c-4.809-23.426-25.256-40.794-49.761-40.794-28.027 0-50.746 22.721-50.746 50.746 0 3.522 0.36 6.96 1.041 10.28l-0.056-0.327 49.761 189.091h-149.282c-27.482 0-49.761 22.279-49.761 49.761s22.279 49.761 49.761 49.761v0h174.161l49.761 199.043h-124.403c-27.482 0-49.761 22.279-49.761 49.761s22.279 49.761 49.761 49.761v0h149.282l49.761 208.994c4.318 23.448 24.602 40.98 48.979 40.98 3.803 0 7.507-0.426 11.067-1.235l-0.334 0.065zM437.357 547.428l-49.761-199.043h199.043l49.761 199.043h-199.043z" />
<glyph unicode="&#xe93a;" glyph-name="i-flag" data-tags="flag" d="M190.933 814.933c-25.331 0-45.867-20.536-45.867-45.867v0-421.973c13.562 5.392 29.26 8.718 45.678 9.17l0.188 0.004h298.133c13.76 0 22.933-4.587 32.107-13.76l32.107-32.107h298.133l-110.080 210.987c-2.42 5.403-3.829 11.71-3.829 18.347s1.409 12.943 3.945 18.638l-0.116-0.291 110.080 210.987h-293.547v-183.467c0-25.331-20.536-45.867-45.867-45.867s-45.867 20.536-45.867 45.867v0 229.333h-275.2zM557.867 860.8h366.933c25.004-0.425 45.112-20.795 45.112-45.861 0-6.639-1.41-12.948-3.947-18.645l0.116 0.291-133.013-256.853 128.427-256.853c2.502-5.484 3.96-11.894 3.96-18.644 0-23.494-17.665-42.863-40.437-45.549l-0.216-0.020h-389.867c-12.59 0.185-23.924 5.415-32.099 13.752l-0.008 0.008-36.693 32.107h-275.2c-25.331 0-45.867-20.536-45.867-45.867v0-183.467c0-25.331-20.536-45.867-45.867-45.867s-45.867 20.536-45.867 45.867v0 733.867c0 75.994 61.606 137.6 137.6 137.6v0h298.133c13.76 0 22.933-4.587 32.107-13.76l32.107-32.107z" />
<glyph unicode="&#xe93b;" glyph-name="i-filter" data-tags="filter" d="M80.833 878.846c16.366 16.691 39.035 27.152 64.147 27.52l0.069 0.001h733.903c50.665 0 91.737-41.072 91.737-91.737v0-119.259c0-22.934-9.173-45.869-27.521-64.216l-293.561-293.561v-119.259c0-13.761-4.587-22.934-13.761-32.109l-183.476-183.476c-8.267-8.11-19.606-13.117-32.113-13.117-25.106 0-45.502 20.17-45.864 45.191v302.769l-293.561 293.561c-16.691 16.366-27.152 39.035-27.52 64.147l-0.001 0.069v119.259c0 22.934 9.173 45.869 27.521 64.216zM878.952 814.629h-733.903v-119.259l293.561-293.561c18.348-18.348 27.521-41.282 27.521-64.216v-192.649l91.737 91.737v100.912c0 22.934 9.173 45.869 27.521 64.216l293.561 293.561v119.259z" />
<glyph unicode="&#xe93c;" glyph-name="i-fast-forward" data-tags="fast-forward" d="M144.052 757.291c13.819 7.007 30.13 11.113 47.4 11.113 24.392 0 46.869-8.187 64.837-21.964l-0.253 0.188 255.964-191.974v106.651c0 58.902 47.749 106.651 106.651 106.651 24.131 0 46.388-8.014 64.259-21.524l-0.269 0.194 282.627-213.303c26.021-19.663 42.661-50.549 42.661-85.321s-16.64-65.657-42.393-85.127l-0.269-0.194-282.627-213.303c-17.602-13.317-39.861-21.331-63.992-21.331-58.902 0-106.651 47.749-106.651 106.651v0 106.651l-255.964-191.974c-17.602-13.317-39.861-21.331-63.992-21.331-58.902 0-106.651 47.749-106.651 106.651v0 426.607c-0.001 0.22-0.002 0.481-0.002 0.742 0 41.401 23.59 77.291 58.061 94.964l0.601 0.28zM618.651 661.303v-426.607l282.627 213.303-282.627 213.303zM474.671 448l-282.627 213.303v-426.607zM224.040 192.036l-31.996 42.661 282.627 213.303z" />
<glyph unicode="&#xe93d;" glyph-name="i-eye-off" data-tags="eye-off" d="M67.226 892.774c8.264 8.105 19.597 13.108 32.097 13.108s23.833-5.003 32.105-13.114l137.551-137.551c69.998 39.111 153.578 62.141 242.538 62.141 225.461 0 416.373-147.932 480.964-352.027l0.976-3.572v-27.512c-31.974-96.589-89.279-177.578-164.087-237.672l-0.983-0.764 128.389-128.389c11.187-8.455 18.342-21.733 18.342-36.682 0-25.324-20.53-45.853-45.853-45.853-14.95 0-28.229 7.154-36.599 18.225l-0.084 0.115-508.968 508.968-320.971 316.386c-8.105 8.264-13.108 19.597-13.108 32.097s5.003 23.833 13.114 32.105l-0.008-0.008zM342.344 686.436l77.95-82.535c24.698 13.212 54.026 20.972 85.166 20.972 101.296 0 183.412-82.116 183.412-183.412 0-31.14-7.76-60.468-21.454-86.155l0.48 0.989 96.291-96.291c62.011 47.761 109.517 111.517 136.637 185.136l0.922 2.861c-58.364 161.653-210.47 275.119-389.076 275.119-0.238 0-0.474 0-0.711-0.001h0.037c-1.221 0.013-2.663 0.020-4.107 0.020-61.658 0-120.157-13.522-172.693-37.762l2.56 1.059zM599.121 425.074c1.506 6.222 2.37 13.366 2.37 20.71 0 50.647-41.058 91.706-91.706 91.706-7.345 0-14.489-0.864-21.335-2.494l0.623 0.126 110.047-110.047zM172.688 622.241c22.926-13.756 27.512-45.853 9.17-64.194-24.163-31.588-44.314-67.993-58.689-107.183l-0.919-2.864c58.786-160.86 210.495-273.611 388.54-273.611 28.006 0 55.361 2.79 81.801 8.106l-2.64-0.443c2.757 0.577 5.925 0.908 9.17 0.908 25.826 0 46.761-20.936 46.761-46.761 0-22.58-16.004-41.422-37.288-45.801l-0.302-0.052-96.291-9.17c-229.265 0-412.677 146.729-481.456 353.068v27.512c18.582 57.845 45.116 108.091 78.861 152.567l-0.91-1.252c8.455 11.187 21.733 18.342 36.682 18.342 10.374 0 19.944-3.445 27.627-9.254l-0.115 0.084z" />
<glyph unicode="&#xe93e;" glyph-name="i-eye" data-tags="eye" d="M512 541.32c-51.539 0-93.32-41.781-93.32-93.32s41.781-93.32 93.32-93.32v0c51.539 0 93.32 41.781 93.32 93.32s-41.781 93.32-93.32 93.32v0zM379.952 580.048c33.794 33.794 80.48 54.696 132.048 54.696 103.136 0 186.744-83.609 186.744-186.744 0-51.568-20.902-98.254-54.696-132.048v0c-33.794-33.794-80.48-54.696-132.048-54.696-103.136 0-186.744 83.609-186.744 186.744 0 51.568 20.902 98.254 54.696 132.048v0zM115.856 448c59.215-164.827 214.161-280.585 396.144-280.585s336.929 115.757 395.223 277.657l0.921 2.928c-59.026 165.177-214.147 281.25-396.377 281.25s-337.351-116.073-395.46-278.318l-0.916-2.932zM22.537 461.998c67.45 210.118 261.124 359.53 489.697 359.53s422.248-149.412 488.687-355.897l1.010-3.633c1.364-4.184 2.149-8.999 2.149-13.998s-0.786-9.814-2.241-14.328l0.092 0.33c-67.217-210.504-261.084-360.275-489.93-360.275s-422.713 149.771-488.925 356.641l-1.005 3.634c-1.364 4.184-2.149 8.999-2.149 13.998s0.786 9.814 2.241 14.328l-0.092-0.33z" />
<glyph unicode="&#xe93f;" glyph-name="i-external-link" data-tags="external-link" d="M611.555 796.445c-27.492 0-49.779 22.287-49.779 49.779s22.287 49.779 49.779 49.779v0h298.666c29.866 0 49.779-19.911 49.779-49.779v-298.666c0-27.492-22.287-49.779-49.779-49.779s-49.779 22.287-49.779 49.779v0 179.2l-413.155-413.155c-8.216-6.215-18.605-9.955-29.866-9.955-27.492 0-49.779 22.287-49.779 49.779 0 11.261 3.74 21.65 10.047 29.991l-0.090-0.125 413.155 413.155h-179.2zM108.8 751.645c26.641 27.172 63.542 44.198 104.422 44.799l0.112 0.001h199.111c27.492 0 49.779-22.287 49.779-49.779s-22.287-49.779-49.779-49.779v0h-199.111c-27.492 0-49.779-22.287-49.779-49.779v0-497.777c0-27.492 22.287-49.779 49.779-49.779v0h497.777c27.492 0 49.779 22.287 49.779 49.779v0 199.111c0 27.492 22.287 49.779 49.779 49.779s49.779-22.287 49.779-49.779v0-199.111c0-82.474-66.86-149.334-149.334-149.334v0h-497.777c-82.474 0-149.334 66.86-149.334 149.334v0 497.777c0 39.821 14.934 79.645 44.8 104.534z" />
<glyph unicode="&#xe941;" glyph-name="i-exclamation" data-tags="exclamation" d="M382.579 871.105c59.732 99.553 199.109 99.553 258.841 0l348.439-597.326c12.61-21.439 20.058-47.227 20.058-74.753 0-82.472-66.858-149.332-149.332-149.332-1.803 0-3.597 0.031-5.382 0.096l0.258-0.006h-686.924c-0.028 0-0.061 0-0.096 0-82.472 0-149.332 66.858-149.332 149.332 0 27.49 7.43 53.247 20.388 75.37l-0.381-0.704 343.462 597.326zM467.2 821.328l-343.462-597.326c-4.203-7.146-6.687-15.742-6.687-24.918 0-27.49 22.287-49.777 49.777-49.777 0.601 0 1.2 0.011 1.794 0.031l-0.086-0.002h686.924c0.508-0.018 1.107-0.029 1.708-0.029 27.49 0 49.777 22.287 49.777 49.777 0 9.175-2.482 17.771-6.814 25.151l0.127-0.235-348.439 597.326c-8.927 14.231-24.529 23.555-42.311 23.555s-33.384-9.323-42.188-23.349l-0.122-0.208zM512 647.109c29.866 0 49.777-19.911 49.777-49.777v-99.553c0-27.49-22.287-49.777-49.777-49.777s-49.777 22.287-49.777 49.777v0 99.553c0 29.866 19.911 49.777 49.777 49.777zM462.223 298.668c0 29.866 19.911 49.777 49.777 49.777 27.49 0 49.777-22.287 49.777-49.777s-22.287-49.777-49.777-49.777v0c-27.49 0-49.777 22.287-49.777 49.777v0z" />
<glyph unicode="&#xe944;" glyph-name="i-duplicate" data-tags="duplicate" d="M213.334 796.445h398.221c27.492 0 49.779-22.287 49.779-49.779v0-49.779h-248.889c-82.474 0-149.334-66.86-149.334-149.334v0-248.889h-49.779c-27.492 0-49.779 22.287-49.779 49.779v0 398.221c0 27.492 22.287 49.779 49.779 49.779v0zM760.889 696.889v49.779c0 82.474-66.86 149.334-149.334 149.334v0h-398.221c-82.474 0-149.334-66.86-149.334-149.334v0-398.221c0-82.474 66.86-149.334 149.334-149.334v0h49.779v-49.779c0-82.474 66.86-149.334 149.334-149.334v0h398.221c82.474 0 149.334 66.86 149.334 149.334v0 398.221c0 82.474-66.86 149.334-149.334 149.334v0h-49.779zM412.445 597.334h398.221c27.492 0 49.779-22.287 49.779-49.779v0-398.221c0-27.492-22.287-49.779-49.779-49.779v0h-398.221c-27.492 0-49.779 22.287-49.779 49.779v0 398.221c0 27.492 22.287 49.779 49.779 49.779v0z" />
<glyph unicode="&#xe945;" glyph-name="i-download" data-tags="download" d="M512 896c29.866 0 49.779-19.911 49.779-49.779v-477.866l114.489 114.489c8.216 6.215 18.605 9.955 29.866 9.955 27.492 0 49.779-22.287 49.779-49.779 0-11.261-3.74-21.65-10.047-29.991l0.090 0.125-199.111-199.111c-8.972-8.798-21.275-14.229-34.845-14.229s-25.873 5.431-34.852 14.237l-199.104 199.104c-12.144 9.179-19.911 23.593-19.911 39.821 0 27.492 22.287 49.779 49.779 49.779 16.229 0 30.645-7.767 39.732-19.785l0.090-0.125 114.489-114.489v477.866c0 29.866 19.911 49.779 49.779 49.779zM113.779 298.666c29.866 0 49.779-19.911 49.779-49.779v-49.779c0-54.982 44.573-99.555 99.555-99.555v0h497.779c54.982 0 99.555 44.573 99.555 99.555v0 49.779c0 27.492 22.287 49.779 49.779 49.779s49.779-22.287 49.779-49.779v0-49.779c0-109.967-89.144-199.111-199.111-199.111v0h-497.779c-109.967 0-199.111 89.144-199.111 199.111v0 49.779c0 29.866 19.911 49.779 49.779 49.779z" />
<glyph unicode="&#xe949;" glyph-name="i-device-tablet" data-tags="device-tablet" d="M209.067 836.267c22.835 23.29 54.464 37.884 89.504 38.399l0.096 0.001h426.667c70.692 0 128-57.308 128-128v0-597.333c0-70.692-57.308-128-128-128v0h-426.667c-70.692 0-128 57.308-128 128v0 597.333c0 34.133 12.8 68.267 38.4 89.6zM298.667 789.333c-23.564 0-42.667-19.103-42.667-42.667v0-597.333c0-23.564 19.103-42.667 42.667-42.667v0h426.667c23.564 0 42.667 19.103 42.667 42.667v0 597.333c0 23.564-19.103 42.667-42.667 42.667v0h-426.667zM469.333 192c0 25.6 17.067 42.667 42.667 42.667 23.564 0 42.667-19.103 42.667-42.667s-19.103-42.667-42.667-42.667v0c-23.564 0-42.667 19.103-42.667 42.667v0z" />
<glyph unicode="&#xe94a;" glyph-name="i-device-mobile" data-tags="device-mobile" d="M251.733 836.267c22.835 23.29 54.464 37.884 89.504 38.399l0.096 0.001h341.333c70.692 0 128-57.308 128-128v0-597.333c0-70.692-57.308-128-128-128v0h-341.333c-70.692 0-128 57.308-128 128v0 597.333c0 34.133 12.8 68.267 38.4 89.6zM341.333 789.333c-23.564 0-42.667-19.103-42.667-42.667v0-597.333c0-23.564 19.103-42.667 42.667-42.667v0h341.333c23.564 0 42.667 19.103 42.667 42.667v0 597.333c0 23.564-19.103 42.667-42.667 42.667v0h-341.333zM469.333 192c0 25.6 17.067 42.667 42.667 42.667 23.564 0 42.667-19.103 42.667-42.667s-19.103-42.667-42.667-42.667v0c-23.564 0-42.667 19.103-42.667 42.667v0z" />
<glyph unicode="&#xe94b;" glyph-name="i-desktop-computer" data-tags="desktop-computer" d="M123.733 836.267c22.835 23.29 54.464 37.884 89.504 38.399l0.096 0.001h597.333c70.692 0 128-57.308 128-128v0-426.667c0-70.692-57.308-128-128-128v0h-149.333l17.067-64 34.133-34.133c7.544-7.69 12.201-18.237 12.201-29.871 0-23.353-18.762-42.325-42.036-42.662h-341.365c-23.305 0.338-42.067 19.309-42.067 42.662 0 11.634 4.656 22.181 12.207 29.878l34.126 34.126 17.067 64h-149.333c-70.692 0-128 57.308-128 128v0 426.667c0 34.133 12.8 68.267 38.4 89.6zM170.667 362.667v-42.667c0-23.564 19.103-42.667 42.667-42.667v0h597.333c23.564 0 42.667 19.103 42.667 42.667v0 42.667h-682.667zM853.333 448v298.667c0 23.564-19.103 42.667-42.667 42.667v0h-597.333c-23.564 0-42.667-19.103-42.667-42.667v0-298.667h682.667zM448 192l-21.333-85.333h170.667l-21.333 85.333h-128z" />
<glyph unicode="&#xe94d;" glyph-name="i-cursor-click" data-tags="cursor-click" d="M282.55 939.024c3.273 0.835 7.031 1.313 10.901 1.313 20.91 0 38.554-13.985 44.088-33.112l0.081-0.324 32.123-133.081c2.827-5.784 4.48-12.587 4.48-19.775 0-25.344-20.546-45.89-45.89-45.89-24.229 0-44.073 18.777-45.772 42.573l-0.009 0.147-36.712 133.081c-0.686 2.975-1.080 6.391-1.080 9.898 0 22.482 16.168 41.188 37.51 45.127l0.283 0.043zM635.903 847.244c13.767-18.356 13.767-45.89 0-68.835l-100.959-91.78c-7.582-15.513-23.245-26.009-41.36-26.009-25.344 0-45.89 20.546-45.89 45.89 0 16.921 9.157 31.702 22.786 39.659l0.217 0.117 96.369 100.959c8.45 9.548 20.734 15.536 34.418 15.536s25.968-5.989 34.376-15.488l0.042-0.048zM20.976 677.45c5.614 19.451 23.258 33.437 44.167 33.437 3.87 0 7.627-0.479 11.217-1.381l-0.316 0.068 133.081-36.712c20.743-5.313 35.83-23.84 35.83-45.89 0-26.124-21.178-47.303-47.303-47.303-4.074 0-8.028 0.515-11.801 1.484l0.328-0.071-137.67 36.712c-17.962 6.498-30.565 23.405-30.565 43.255 0 5.897 1.112 11.534 3.138 16.714l-0.108-0.312zM342.206 613.204c8.095 7.302 18.868 11.77 30.687 11.77 5.449 0 10.675-0.95 15.523-2.692l-0.321 0.1 504.791-183.561c15.446-7.605 25.887-23.234 25.887-41.301s-10.44-33.696-25.619-41.182l-0.269-0.119-160.615-68.835 183.561-178.971c7.845-8.388 12.661-19.693 12.661-32.123 0-26.001-21.079-47.079-47.079-47.079-13.571 0-25.801 5.742-34.393 14.93l-0.025 0.027-183.561 183.561-64.246-169.794c-7.605-15.446-23.234-25.887-41.301-25.887s-33.696 10.44-41.182 25.619l-0.119 0.269-183.561 504.791c-2.443 5.427-3.864 11.763-3.864 18.433 0 12.473 4.977 23.784 13.052 32.056l-0.009-0.009zM452.342 503.068l105.547-298.285 45.89 119.314 27.534 22.945 119.314 45.89-298.285 110.136zM277.96 484.712c18.356-18.356 18.356-45.89 0-64.246l-96.369-100.959c-8.809-8.809-20.976-14.256-34.418-14.256-26.882 0-48.674 21.792-48.674 48.674 0 13.441 5.448 25.609 14.256 34.418v0l100.959 91.78c8.271 8.112 19.613 13.118 32.123 13.118s23.852-5.007 32.131-13.125l-0.008 0.008z" />
<glyph unicode="&#xe94e;" glyph-name="i-credit-card" data-tags="credit-card" d="M136.533 738.133c30.447 31.053 72.619 50.512 119.338 51.199l0.129 0.001h512c94.257 0 170.667-76.41 170.667-170.667v0-341.333c0-94.257-76.41-170.667-170.667-170.667v0h-512c-94.257 0-170.667 76.41-170.667 170.667v0 341.333c0 42.667 17.067 85.333 51.2 119.467zM170.667 490.667v-213.333c0-47.128 38.205-85.333 85.333-85.333v0h512c47.128 0 85.333 38.205 85.333 85.333v0 213.333h-682.667zM853.333 576v42.667c0 47.128-38.205 85.333-85.333 85.333v0h-512c-47.128 0-85.333-38.205-85.333-85.333v0-42.667h682.667zM256 320c0 25.6 17.067 42.667 42.667 42.667h42.667c23.564 0 42.667-19.103 42.667-42.667s-19.103-42.667-42.667-42.667v0h-42.667c-23.564 0-42.667 19.103-42.667 42.667v0zM469.333 320c0 25.6 17.067 42.667 42.667 42.667h42.667c23.564 0 42.667-19.103 42.667-42.667s-19.103-42.667-42.667-42.667v0h-42.667c-23.564 0-42.667 19.103-42.667 42.667v0z" />
<glyph unicode="&#xe94f;" glyph-name="i-clipboard-copy" data-tags="clipboard-copy" d="M413.867 840.533c-27.098 0-49.067-21.969-49.067-49.067s21.969-49.067 49.067-49.067v0h98.133c27.098 0 49.067 21.969 49.067 49.067s-21.969 49.067-49.067 49.067v0h-98.133zM310.827 894.507c26.261 26.784 62.634 43.566 102.93 44.159l0.11 0.001h98.133c63.147-0.618 116.729-40.906 137.063-97.108l0.324-1.025h58.88c81.296 0 147.2-65.904 147.2-147.2v0-147.2c0-27.098-21.969-49.067-49.067-49.067s-49.067 21.969-49.067 49.067v0 147.2c0 27.098-21.969 49.067-49.067 49.067v0h-58.88c-20.658-57.227-74.239-97.516-137.312-98.133l-0.075-0.001h-98.133c-63.147 0.618-116.729 40.906-137.063 97.108l-0.324 1.025h-58.88c-27.098 0-49.067-21.969-49.067-49.067v0-588.8c0-27.098 21.969-49.067 49.067-49.067v0h490.667c27.098 0 49.067 21.969 49.067 49.067v0 49.067c0 27.098 21.969 49.067 49.067 49.067s49.067-21.969 49.067-49.067v0-49.067c0-81.296-65.904-147.2-147.2-147.2v0h-490.667c-81.296 0-147.2 65.904-147.2 147.2v0 588.8c0 81.296 65.904 147.2 147.2 147.2v0h58.88c4.907 19.627 19.627 39.253 34.347 53.973zM595.413 531.413c19.627-19.627 19.627-49.067 0-68.693l-63.787-63.787h372.907c27.098 0 49.067-21.969 49.067-49.067s-21.969-49.067-49.067-49.067v0h-372.907l63.787-63.787c6.127-8.098 9.813-18.339 9.813-29.44 0-27.098-21.969-49.067-49.067-49.067-11.101 0-21.342 3.686-29.563 9.903l0.123-0.090-147.2 147.2c-8.674 8.844-14.027 20.971-14.027 34.347s5.353 25.503 14.033 34.356l147.191 147.191c8.844 8.674 20.971 14.027 34.347 14.027s25.503-5.353 34.356-14.033l-0.009 0.009z" />
<glyph unicode="&#x1f30d;" glyph-name="i-globe" data-tags="globe" d="M267.176 754.763c6.547-89.459 80.732-159.559 171.291-159.566h24.534c27.098 0 49.067-21.969 49.067-49.067v0c0-81.296 65.904-147.2 147.2-147.2s147.2 65.904 147.2 147.2v0c0 27.098 21.969 49.067 49.067 49.067v0h20.411c18.127-43.555 28.657-94.147 28.657-147.2s-10.529-103.647-29.611-149.805l0.954 2.605h-118.545c-81.296 0-147.2-65.904-147.2-147.2v0-85.67c-29.446-7.915-63.255-12.463-98.128-12.463-0.002 0-0.004 0-0.006 0v0 98.133c0 81.296-65.904 147.2-147.2 147.2v0c-27.098 0-49.067 21.969-49.067 49.067v0 49.067c0 81.296-65.904 147.2-147.2 147.2v0h-36.603c22.386 84.827 70.085 156.361 134.413 208.038l0.766 0.595zM290.728 885.917c-161.1-82.64-269.424-247.602-269.424-437.867 0-67.772 13.744-132.335 38.597-191.051l-1.21 3.218c75.701-179.317 250.077-302.876 453.309-302.876 57.257 0 112.225 9.808 163.313 27.834l-3.435-1.056c2.851 0.751 5.284 1.623 7.617 2.674l-0.305-0.123c130.279 48.182 232.409 146.205 284.947 270.326l1.211 3.221c23.619 55.485 37.351 120.025 37.351 187.772 0 270.987-219.679 490.669-490.669 490.669-80.723 0-156.891-19.492-224.059-54.029l2.757 1.288zM364.867 811.875c43.564 18.136 94.172 28.669 147.239 28.669 125.385 0 237.037-58.803 308.882-150.338l0.643-0.852c-65.445-15.881-113.286-73.965-113.295-143.225v-0.001c0-27.098-21.969-49.067-49.067-49.067s-49.067 21.969-49.067 49.067v0c0 81.296-65.904 147.2-147.2 147.2v0h-24.533c-40.648 0-73.6 32.952-73.6 73.6v0 44.945zM818.49 202.664c-30.491-37.837-66.989-69.379-108.301-93.596l-1.854-1.003v45.535c0 27.098 21.969 49.067 49.067 49.067v0h61.088zM413.934 67.925c-170.644 45.1-294.4 198.094-294.4 379.994 0 0.028 0 0.055 0 0.081v-0.003h49.067c27.098 0 49.067-21.969 49.067-49.067v0-49.067c0-81.296 65.904-147.2 147.2-147.2v0c27.098 0 49.067-21.969 49.067-49.067v0-85.67z" />
<glyph unicode="&#x1f319;" glyph-name="i-moon" data-tags="moon" d="M397.485 910.446c8.901-8.915 14.407-21.224 14.407-34.821 0-6.631-1.31-12.958-3.684-18.732l0.119 0.328c-17.922-43.44-28.327-93.877-28.327-146.741 0-217.737 176.51-394.247 394.247-394.247 53 0 103.556 10.458 149.719 29.422l-2.625-0.955c5.422 2.233 11.716 3.529 18.313 3.529 27.216 0 49.281-22.065 49.281-49.281 0-6.598-1.296-12.891-3.648-18.642l0.119 0.329c-74.731-182.898-251.245-309.434-457.32-309.485h-0.005c-0.061 0-0.134 0-0.207 0-272.171 0-492.809 220.637-492.809 492.809 0 206.018 126.419 382.51 305.913 456.134l3.284 1.193c5.448 2.255 11.772 3.565 18.403 3.565 13.594 0 25.904-5.504 34.821-14.408l-0.001 0.001zM285.618 774.925c-92.519-72.828-151.384-184.821-151.384-310.561 0-217.737 176.51-394.247 394.247-394.247 125.74 0 237.734 58.865 309.922 150.541l0.64 0.843c-19.496-2.732-42.021-4.293-64.909-4.293-272.171 0-492.809 220.637-492.809 492.809 0 22.888 1.561 45.411 4.58 67.472l-0.287-2.562z" />
<glyph unicode="&#x1f31e;" glyph-name="i-sun" data-tags="sun" d="M512 938.667c27.098 0 49.067-21.969 49.067-49.067v0-49.067c0-27.098-21.969-49.067-49.067-49.067s-49.067 21.969-49.067 49.067v0 49.067c0 27.098 21.969 49.067 49.067 49.067v0zM165.099 794.901c8.868 8.818 21.095 14.269 34.592 14.269s25.724-5.45 34.594-14.271l-0.002 0.002 34.837-34.347c8.957-8.896 14.503-21.22 14.503-34.837 0-27.113-21.979-49.095-49.095-49.095-13.496 0-25.719 5.445-34.594 14.26l0.002-0.002-34.837 34.347c-8.965 8.893-14.515 21.218-14.515 34.837s5.55 25.944 14.51 34.835l0.003 0.003zM858.901 794.901c8.818-8.868 14.269-21.095 14.269-34.592s-5.45-25.724-14.271-34.594l0.002 0.002-34.347-34.837c-8.896-8.957-21.22-14.503-34.837-14.503-27.113 0-49.095 21.979-49.095 49.095 0 13.496 5.445 25.719 14.26 34.594l-0.002-0.002 34.347 34.837c8.893 8.965 21.218 14.515 34.837 14.515s25.944-5.55 34.835-14.51l0.003-0.003zM512 595.2c-81.296 0-147.2-65.904-147.2-147.2s65.904-147.2 147.2-147.2v0c81.296 0 147.2 65.904 147.2 147.2s-65.904 147.2-147.2 147.2v0zM338.304 621.696c44.453 44.453 105.863 71.947 173.696 71.947 135.666 0 245.643-109.977 245.643-245.643 0-67.833-27.494-129.243-71.947-173.696v0c-44.453-44.453-105.863-71.947-173.696-71.947-135.666 0-245.643 109.977-245.643 245.643 0 67.833 27.494 129.243 71.947 173.696v0zM21.333 448c0 27.098 21.969 49.067 49.067 49.067v0h49.067c27.098 0 49.067-21.969 49.067-49.067s-21.969-49.067-49.067-49.067v0h-49.067c-27.098 0-49.067 21.969-49.067 49.067v0zM855.467 448c0 27.098 21.969 49.067 49.067 49.067v0h49.067c27.098 0 49.067-21.969 49.067-49.067s-21.969-49.067-49.067-49.067v0h-49.067c-27.098 0-49.067 21.969-49.067 49.067v0zM269.12 205.12c8.818-8.868 14.269-21.095 14.269-34.592s-5.45-25.724-14.271-34.594l0.002 0.002-34.347-34.837c-8.896-8.957-21.22-14.503-34.837-14.503-27.113 0-49.095 21.979-49.095 49.095 0 13.496 5.445 25.719 14.26 34.594l-0.002-0.002 34.347 34.837c8.893 8.965 21.218 14.515 34.837 14.515s25.944-5.55 34.835-14.51l0.003-0.003zM754.88 205.12c8.868 8.818 21.095 14.269 34.592 14.269s25.724-5.45 34.594-14.271l-0.002 0.002 34.837-34.347c8.957-8.896 14.503-21.22 14.503-34.837 0-27.113-21.979-49.095-49.095-49.095-13.496 0-25.719 5.445-34.594 14.26l0.002-0.002-34.837 34.347c-8.965 8.893-14.515 21.218-14.515 34.837s5.55 25.944 14.51 34.835l0.003 0.003zM512 104.533c27.098 0 49.067-21.969 49.067-49.067v0-49.067c0-27.098-21.969-49.067-49.067-49.067s-49.067 21.969-49.067 49.067v0 49.067c0 27.098 21.969 49.067 49.067 49.067v0z" />
<glyph unicode="&#x1f399;" glyph-name="i-mic" data-tags="microphone" d="M511.997 859.531c-50.349 0-91.166-40.817-91.166-91.166v0-273.499c0-50.349 40.817-91.166 91.166-91.166s91.166 40.817 91.166 91.166v0 273.499c0 50.349-40.817 91.166-91.166 91.166v0zM384.364 895.997c32.864 32.24 77.933 52.139 127.651 52.139 99.799 0 180.872-80.18 182.313-179.636l0.001-0.136v-273.499c0-100.7-81.633-182.333-182.333-182.333s-182.333 81.633-182.333 182.333v0 273.499c0 45.584 18.234 91.166 54.7 127.633zM192.914 540.448c27.35 0 45.584-18.234 45.584-45.584 0-151.050 122.45-273.499 273.499-273.499s273.499 122.45 273.499 273.499v0c0 25.175 20.409 45.584 45.584 45.584s45.584-20.409 45.584-45.584v0c0.007-0.849 0.011-1.854 0.011-2.859 0-185.334-138.259-338.376-317.262-361.613l-1.831-0.194v-91.166h136.75c25.175 0 45.584-20.409 45.584-45.584s-20.409-45.584-45.584-45.584v0h-364.665c-25.175 0-45.584 20.409-45.584 45.584s20.409 45.584 45.584 45.584v0h136.75v91.166c-180.835 23.43-319.093 176.472-319.093 361.806 0 1.005 0.004 2.010 0.012 3.013l-0.001-0.154c0 27.35 18.234 45.584 45.584 45.584z" />
<glyph unicode="&#x1f3b5;" glyph-name="i-music" data-tags="music-note" d="M983.040 928.853c14.72-9.813 19.627-24.533 19.627-39.253v-637.867c0-49.067-29.44-88.32-63.787-107.947-39.253-24.533-83.413-39.253-132.48-39.253s-98.133 14.72-132.48 39.253c-37.051 22.697-61.865 62.226-63.777 107.677l-0.010 0.27c0 49.067 29.44 88.32 63.787 107.947 37.978 24.451 84.353 38.978 134.121 38.978 34.828 0 67.994-7.115 98.127-19.97l-1.635 0.619v250.24l-490.667-122.667v-402.347c0-49.067-29.44-88.32-63.787-107.947-39.253-24.533-83.413-39.253-132.48-39.253s-98.133 14.72-132.48 39.253c-37.051 22.697-61.865 62.226-63.777 107.677l-0.010 0.27c0 49.067 29.44 88.32 63.787 107.947 37.978 24.451 84.353 38.978 134.121 38.978 34.828 0 67.994-7.115 98.127-19.97l-1.635 0.619v510.293c0 24.533 14.72 44.16 39.253 49.067l588.8 147.2c14.72 0 29.44 0 39.253-9.813zM413.867 609.92l490.667 122.667v98.133l-490.667-132.48v-98.133zM315.733 104.533c0 4.907 0 14.72-19.627 29.44-19.627 9.813-49.067 19.627-78.507 19.627-34.347 0-58.88-9.813-78.507-19.627l-19.627-29.44c0-4.907 0-14.72 19.627-29.44 19.627-9.813 49.067-19.627 78.507-19.627 34.347 0 58.88 9.813 78.507 19.627l19.627 29.44zM904.533 251.733c0 4.907 0 14.72-19.627 29.44-19.627 9.813-49.067 19.627-78.507 19.627-34.347 0-58.88-9.813-78.507-19.627l-19.627-29.44c0-4.907 0-14.72 19.627-29.44 19.627-9.813 49.067-19.627 78.507-19.627 34.347 0 58.88 9.813 78.507 19.627l19.627 29.44z" />
<glyph unicode="&#x1f446;" glyph-name="i-chevron-up" data-tags="chevron-up" d="M477.092 655.309c8.988 8.815 21.313 14.256 34.909 14.256s25.921-5.441 34.917-14.263l349.076-349.076c6.226-8.231 9.973-18.639 9.973-29.921 0-27.542-22.328-49.87-49.87-49.87-11.282 0-21.691 3.747-30.047 10.065l0.125-0.091-314.175 314.175-314.175-314.175c-8.231-6.226-18.639-9.973-29.921-9.973-27.542 0-49.87 22.328-49.87 49.87 0 11.282 3.747 21.691 10.065 30.047l-0.091-0.125 349.084 349.084z" />
<glyph unicode="&#x1f447;" glyph-name="i-chevron-down" data-tags="chevron-down" d="M126.392 653.946c8.96 8.787 21.245 14.211 34.798 14.211s25.838-5.423 34.806-14.218l313.168-313.168 313.176 313.176c9.166 12.129 23.562 19.885 39.768 19.885 27.454 0 49.711-22.257 49.711-49.711 0-16.208-7.756-30.603-19.759-39.678l-0.125-0.091-347.974-347.974c-8.96-8.787-21.245-14.211-34.798-14.211s-25.838 5.423-34.806 14.218l-347.966 347.966c-8.787 8.96-14.211 21.245-14.211 34.798s5.423 25.838 14.218 34.806l-0.008-0.008z" />
<glyph unicode="&#x1f448;" glyph-name="i-chevron-left" data-tags="chevron-left" d="M707.791 805.549c18.679-18.679 18.679-46.696 0-65.373l-294.181-294.181 294.181-294.181c5.83-7.707 9.339-17.453 9.339-28.017 0-25.789-20.907-46.696-46.696-46.696-10.564 0-20.31 3.509-28.134 9.424l0.117-0.085-326.868 326.868c-8.254 8.416-13.349 19.957-13.349 32.687s5.095 24.271 13.355 32.695l326.86 326.86c8.416 8.254 19.957 13.349 32.687 13.349s24.271-5.095 32.695-13.355l-0.008 0.008z" />
<glyph unicode="&#x1f449;" glyph-name="i-chevron-right" data-tags="chevron-right" d="M315.548 805.549c8.416 8.254 19.957 13.349 32.687 13.349s24.271-5.095 32.695-13.355l326.861-326.861c18.679-18.679 18.679-46.696 0-65.373l-326.868-326.868c-7.707-5.83-17.453-9.339-28.017-9.339-25.789 0-46.696 20.907-46.696 46.696 0 10.564 3.509 20.31 9.424 28.134l-0.085-0.117 294.181 294.181-294.181 294.181c-8.254 8.416-13.349 19.957-13.349 32.687s5.095 24.271 13.355 32.695l-0.008-0.008z" />
<glyph unicode="&#x1f464;" glyph-name="i-cirlce-user" data-tags="user-circle" d="M511.755 840.17c-0.090 0-0.196 0-0.302 0-216.805 0-392.561-175.756-392.561-392.561 0-83.083 25.81-160.138 69.851-223.584l-0.852 1.294c94.485 47.563 205.921 75.416 323.864 75.416s229.379-27.851 328.093-77.335l-4.229 1.919c43.189 62.15 68.999 139.205 68.999 222.288 0 216.805-175.756 392.561-392.561 392.561-0.106 0-0.212 0-0.318 0h0.016zM888.124 132.577c-90.788-107.325-225.551-175.007-376.124-175.007s-285.337 67.683-375.528 174.285l-0.596 0.722c-71.27 84.615-114.579 194.825-114.579 315.15 0 271.007 219.695 490.703 490.703 490.703s490.703-219.695 490.703-490.703c0-120.325-43.309-230.535-115.188-315.894l0.609 0.742zM766.92 149.262c-75.118 33.822-162.841 53.527-255.165 53.527s-180.046-19.705-259.19-55.137l4.026 1.61c68.169-58.577 157.503-94.24 255.165-94.24s186.995 35.664 255.686 94.679l-0.521-0.438zM511.755 300.397v0zM511.755 643.89c-54.202 0-98.141-43.939-98.141-98.141s43.939-98.141 98.141-98.141v0c54.202 0 98.141 43.939 98.141 98.141s-43.939 98.141-98.141 98.141v0zM372.886 684.617c35.54 35.54 84.636 57.521 138.869 57.521 108.463 0 196.39-87.927 196.39-196.39 0-54.233-21.981-103.329-57.521-138.869v0c-35.54-35.54-84.636-57.521-138.869-57.521-108.463 0-196.39 87.927-196.39 196.39 0 54.233 21.981 103.329 57.521 138.869v0z" />
<glyph unicode="&#x1f465;" glyph-name="i-user-add" data-tags="user-add" d="M374.403 814.78c-75.992 0-137.597-61.605-137.597-137.597s61.605-137.597 137.597-137.597v0c75.992 0 137.597 61.605 137.597 137.597s-61.605 137.597-137.597 137.597v0zM212.039 839.547c41.553 41.553 98.957 67.254 162.364 67.254 126.815 0 229.618-102.803 229.618-229.618 0-63.407-25.701-120.811-67.254-162.364v0c-41.553-41.553-98.957-67.254-162.364-67.254-126.815 0-229.618 102.803-229.618 229.618 0 63.407 25.701 120.811 67.254 162.364v0zM787.194 631.318c25.331 0 45.866-20.535 45.866-45.866v0-91.731h91.731c25.331 0 45.866-20.535 45.866-45.866s-20.535-45.866-45.866-45.866v0h-91.731v-91.731c0-25.331-20.535-45.866-45.866-45.866s-45.866 20.535-45.866 45.866v0 91.731h-91.731c-25.331 0-45.866 20.535-45.866 45.866s20.535 45.866 45.866 45.866v0h91.731v91.731c0 25.331 20.535 45.866 45.866 45.866v0zM374.403 310.258c-126.655 0-229.328-102.674-229.328-229.328v0h458.657c0 126.655-102.674 229.328-229.328 229.328v0zM147.368 307.965c58.101 58.108 138.371 94.048 227.035 94.048 177.316 0 321.060-143.744 321.060-321.060 0-0.009 0-0.016 0-0.025v0.002-45.866c0-25.331-20.535-45.866-45.866-45.866v0h-550.388c-25.331 0-45.866 20.535-45.866 45.866v0 45.866c0 0.008 0 0.015 0 0.024 0 88.652 35.931 168.913 94.025 227.012v0z" />
<glyph unicode="&#x1f4ac;" glyph-name="i-chat" data-tags="chat-alt" d="M177.197 806.381c-26.415 0-47.829-21.414-47.829-47.829v0-382.632c0-26.415 21.414-47.829 47.829-47.829v0h191.317c28.698 0 47.829-19.132 47.829-47.829v-124.355l157.836 157.836c9.565 9.565 19.132 14.348 33.481 14.348h239.145c26.415 0 47.829 21.414 47.829 47.829v0 382.632c0 26.415-21.414 47.829-47.829 47.829v0h-669.606zM76.756 858.993c25.598 26.108 61.054 42.468 100.333 43.045l0.108 0.001h669.606c79.245 0 143.487-64.242 143.487-143.487v0-382.632c0-79.245-64.242-143.487-143.487-143.487v0h-220.014l-224.796-224.796c-8.621-8.457-20.444-13.677-33.485-13.677-26.179 0-47.446 21.032-47.824 47.122v191.352h-143.487c-79.245 0-143.487 64.242-143.487 143.487v0 382.632c0 38.263 14.348 76.526 43.046 100.441zM272.855 567.236c0 28.698 19.132 47.829 47.829 47.829 26.415 0 47.829-21.414 47.829-47.829s-21.414-47.829-47.829-47.829v0c-26.415 0-47.829 21.414-47.829 47.829v0zM464.171 567.236c0-28.698 19.132-47.829 47.829-47.829 26.415 0 47.829 21.414 47.829 47.829s-21.414 47.829-47.829 47.829v0c-26.415 0-47.829-21.414-47.829-47.829v0zM655.487 567.236c0 28.698 19.132 47.829 47.829 47.829 26.415 0 47.829-21.414 47.829-47.829s-21.414-47.829-47.829-47.829v0c-26.415 0-47.829 21.414-47.829 47.829v0z" />
<glyph unicode="&#x1f4c1;" glyph-name="i-folder" data-tags="folder" d="M50.933 807.733c27.117 27.656 64.676 44.988 106.286 45.599l0.114 0.001h304c15.2 0 25.333-5.067 35.467-15.2l86.133-86.133h283.733c83.946 0 152-68.054 152-152v0-405.333c0-83.946-68.054-152-152-152v0h-709.333c-83.946 0-152 68.054-152 152v0 506.667c0 40.533 15.2 81.067 45.6 106.4zM157.333 752c-27.982 0-50.667-22.685-50.667-50.667v0-506.667c0-27.982 22.685-50.667 50.667-50.667v0h709.333c27.982 0 50.667 22.685 50.667 50.667v0 405.333c0 27.982-22.685 50.667-50.667 50.667v0h-304c-13.908 0.204-26.427 5.981-35.458 15.191l-86.142 86.142h-283.733z" />
<glyph unicode="&#x1f4ca;" glyph-name="i-database" data-tags="database" d="M290.133 746.667c60.434 27.132 130.991 42.937 205.24 42.937 5.847 0 11.671-0.098 17.47-0.292l-0.844 0.022c85.333 0 170.667-17.067 221.867-42.667 59.733-29.867 76.8-64 76.8-85.333s-17.067-55.467-76.8-85.333c-60.434-27.132-130.991-42.937-205.24-42.937-5.847 0-11.671 0.098-17.47 0.292l0.844-0.022c-85.333 0-170.667 17.067-221.867 42.667-59.733 34.133-76.8 68.267-76.8 85.333s17.067 55.467 76.8 85.333zM810.667 520.533v-72.533c0-21.333-17.067-55.467-76.8-85.333-60.434-27.132-130.991-42.937-205.24-42.937-5.847 0-11.671 0.098-17.47 0.292l0.844-0.022c-85.333 0-170.667 17.067-221.867 42.667-59.733 29.867-76.8 64-76.8 85.333v76.8l38.4-21.333c73.739-35.058 160.234-55.531 251.51-55.531 3.079 0 6.153 0.023 9.221 0.070l-0.464-0.006c1.669-0.017 3.641-0.026 5.614-0.026 107.694 0 208.731 28.5 295.981 78.368l-2.929-1.542zM896 661.333c0 72.533-55.467 128-123.733 157.867-73.739 35.058-160.234 55.531-251.51 55.531-3.079 0-6.153-0.023-9.221-0.070l0.464 0.006c-2.604 0.041-5.678 0.064-8.757 0.064-91.276 0-177.771-20.473-255.142-57.077l3.632 1.546c-68.267-29.867-123.733-85.333-123.733-157.867v-426.667c0-72.533 55.467-128 123.733-157.867 73.739-35.058 160.234-55.531 251.51-55.531 3.079 0 6.153 0.023 9.221 0.070l-0.464-0.006c2.604-0.041 5.678-0.064 8.757-0.064 91.276 0 177.771 20.473 255.142 57.077l-3.632-1.546c68.267 34.133 123.733 85.333 123.733 157.867v426.667zM810.667 311.467v-76.8c0-21.333-17.067-55.467-76.8-85.333-60.434-27.132-130.991-42.937-205.24-42.937-5.847 0-11.671 0.098-17.47 0.292l0.844-0.022c-85.333 0-170.667 17.067-221.867 42.667-59.733 29.867-76.8 64-76.8 85.333v76.8l38.4-21.333c73.739-35.058 160.234-55.531 251.51-55.531 3.079 0 6.153 0.023 9.221 0.070l-0.464-0.006c1.669-0.017 3.641-0.026 5.614-0.026 107.694 0 208.731 28.5 295.981 78.368l-2.929-1.542z" />
<glyph unicode="&#x1f4cb;" glyph-name="i-clipboard-check" data-tags="clipboard-check" d="M462.934 840.532c-27.098 0-49.067-21.969-49.067-49.067s21.969-49.067 49.067-49.067v0h98.133c27.098 0 49.067 21.969 49.067 49.067s-21.969 49.067-49.067 49.067v0h-98.133zM359.894 894.506c26.261 26.784 62.634 43.566 102.93 44.159l0.11 0.001h98.133c63.147-0.618 116.729-40.906 137.063-97.108l0.324-1.025h58.88c81.296 0 147.2-65.904 147.2-147.2v0-588.8c0-81.296-65.904-147.2-147.2-147.2v0h-490.667c-81.296 0-147.2 65.904-147.2 147.2v0 588.8c0 81.296 65.904 147.2 147.2 147.2v0h58.88c4.907 19.627 19.627 39.253 34.347 53.973zM325.548 742.399h-58.88c-27.098 0-49.067-21.969-49.067-49.067v0-588.8c0-27.098 21.969-49.067 49.067-49.067v0h490.667c27.098 0 49.067 21.969 49.067 49.067v0 588.8c0 27.098-21.969 49.067-49.067 49.067v0h-58.88c-20.658-57.227-74.239-97.516-137.312-98.133l-0.075-0.001h-98.133c-63.147 0.618-116.729 40.906-137.063 97.108l-0.324 1.025zM693.548 482.346c19.627-19.627 19.627-49.067 0-68.693l-196.267-196.267c-8.844-8.674-20.971-14.027-34.347-14.027s-25.503 5.353-34.356 14.033l-98.124 98.124c-11.972 9.047-19.627 23.257-19.627 39.253 0 27.098 21.969 49.067 49.067 49.067 15.997 0 30.207-7.655 39.164-19.503l0.090-0.123 63.787-63.787 161.92 161.92c8.844 8.674 20.971 14.027 34.347 14.027s25.503-5.353 34.356-14.033l-0.009 0.009z" />
<glyph unicode="&#x1f4cc;" glyph-name="i-annotation" data-tags="annotation (1)" d="M163.517 796.132c-27.494 0-49.783-22.289-49.783-49.783v0-398.267c0-27.494 22.289-49.783 49.783-49.783v0h149.35c14.936 0 24.891-4.979 34.849-14.936l164.286-164.286 164.286 164.286c9.957 9.957 19.913 14.936 34.849 14.936h149.35c27.494 0 49.783 22.289 49.783 49.783v0 398.267c0 27.494-22.289 49.783-49.783 49.783v0h-696.967zM58.971 850.895c26.643 27.174 63.548 44.202 104.434 44.803l0.112 0.001h696.967c82.484 0 149.35-66.866 149.35-149.35v0-398.267c0-82.484-66.866-149.35-149.35-149.35v0h-129.437l-184.199-184.199c-8.972-8.8-21.277-14.231-34.849-14.231s-25.877 5.431-34.856 14.239l-184.19 184.19h-129.437c-82.484 0-149.35 66.866-149.35 149.35v0 398.267c0 39.827 14.936 79.653 44.806 104.546zM213.3 646.782c0 29.87 19.913 49.783 49.783 49.783h497.835c27.494 0 49.783-22.289 49.783-49.783s-22.289-49.783-49.783-49.783v0h-497.835c-27.494 0-49.783 22.289-49.783 49.783v0zM213.3 447.649c0 29.87 19.913 49.783 49.783 49.783h199.133c27.494 0 49.783-22.289 49.783-49.783s-22.289-49.783-49.783-49.783v0h-199.133c-27.494 0-49.783 22.289-49.783 49.783v0z" />
<glyph unicode="&#x1f4cd;" glyph-name="i-pin" data-tags="location-marker" d="M512.001 851.019c-0.009 0-0.016 0-0.026 0-189.093 0-342.385-153.292-342.385-342.385 0-94.554 38.328-180.155 100.294-242.114l207.387-207.387c8.865-8.935 21.15-14.469 34.727-14.469s25.862 5.532 34.725 14.464l207.39 207.39c61.967 61.961 100.294 147.562 100.294 242.114 0 189.093-153.292 342.385-342.385 342.385-0.010 0-0.017 0-0.027 0h0.002zM823.081 197.557l-207.387-207.875c-26.548-26.516-63.205-42.914-103.693-42.914s-77.146 16.398-103.695 42.915l0.001-0.001-207.387 207.875c-79.777 79.681-129.128 189.811-129.128 311.468 0 243.119 197.089 440.208 440.208 440.208s440.208-197.089 440.208-440.208c0-121.657-49.351-231.787-129.124-311.464l-0.004-0.004zM512.001 606.46c-54.026 0-97.823-43.797-97.823-97.823s43.797-97.823 97.823-97.823v0c54.026 0 97.823 43.797 97.823 97.823s-43.797 97.823-97.823 97.823v0zM373.58 647.057c35.426 35.426 84.364 57.335 138.421 57.335 108.113 0 195.758-87.643 195.758-195.758 0-54.057-21.911-102.997-57.335-138.421v0c-35.426-35.426-84.364-57.335-138.421-57.335-108.113 0-195.758 87.643-195.758 195.758 0 54.057 21.911 102.997 57.335 138.421v0z" />
<glyph unicode="&#x1f4ce;" glyph-name="i-paper-clip" data-tags="paper-clip" d="M488.145 840.223c41.205 39.837 97.409 64.387 159.346 64.387 126.678 0 229.37-102.693 229.37-229.37 0-61.938-24.549-118.141-64.449-159.411l0.062 0.065-294.512-302.31c-24.93-24.987-59.401-40.446-97.483-40.446-76.049 0-137.699 61.649-137.699 137.699 0 37.968 15.366 72.346 40.219 97.256l301.85 301.85c8.336 8.336 19.851 13.491 32.57 13.491 25.44 0 46.062-20.623 46.062-46.062 0-12.719-5.155-24.235-13.491-32.57v0l-302.31-301.852v-0.917c-11.193-8.458-18.35-21.743-18.35-36.699 0-25.335 20.539-45.874 45.874-45.874 14.957 0 28.242 7.157 36.616 18.234l0.084 0.115 294.512 301.852c23.023 24.541 37.166 57.651 37.166 94.065 0 76.006-61.616 137.622-137.622 137.622-36.186 0-69.11-13.965-93.676-36.801l0.085 0.078-294.512-301.852c-41.561-41.561-67.266-98.975-67.266-162.394 0-126.838 102.822-229.66 229.66-229.66 63.419 0 120.833 25.705 162.394 67.266v0l286.713 286.713c8.336 8.336 19.851 13.491 32.57 13.491 25.44 0 46.062-20.623 46.062-46.062 0-12.719-5.155-24.235-13.491-32.57v0l-287.171-286.254c-58.114-58.114-138.397-94.058-227.077-94.058-177.357 0-321.135 143.776-321.135 321.135 0 88.679 35.944 168.962 94.058 227.077v0l293.594 301.852 1.376 0.917z" />
<glyph unicode="&#x1f4dd;" glyph-name="i-pencil-alt" data-tags="pencil-alt" d="M832.469 788.4c-3.518 0.965-7.557 1.52-11.726 1.52-13.596 0-25.816-5.898-34.237-15.277l-0.038-0.043h-4.6l-381.8-381.8v-64.4h64.4l381.8 381.8c9.953 8.49 16.225 21.045 16.225 35.063 0 19.668-12.345 36.455-29.709 43.031l-0.316 0.106zM814.069 880.4c73.528-3.375 131.863-63.807 131.863-137.863 0-35.471-13.383-67.816-35.374-92.262l0.111 0.125-395.6-395.6c-8.207-8.369-19.573-13.615-32.166-13.8h-128.835c-25.405 0-46 20.595-46 46v0 128.8c0 13.8 4.6 23 13.8 32.2l395.6 395.6c23.996 26.821 58.108 44.162 96.286 45.988l0.314 0.012zM119.469 747c24.619 25.11 58.719 40.844 96.496 41.399l0.103 0.001h230c25.405 0 46-20.595 46-46s-20.595-46-46-46v0h-230c-25.405 0-46-20.595-46-46v0-506c0-25.405 20.595-46 46-46v0h506c25.405 0 46 20.595 46 46v0 230c0 25.405 20.595 46 46 46s46-20.595 46-46v0-230c0-76.215-61.785-138-138-138v0h-506c-76.215 0-138 61.785-138 138v0 506c0 36.8 13.8 73.6 41.4 96.6z" />
<glyph unicode="&#x1f4e2;" glyph-name="i-announcemnent" data-tags="speakerphone" d="M805.562 906.69c13.761-9.173 27.521-27.521 27.521-45.869v-142.194c82.327-19.239 142.707-92.013 142.707-178.889s-60.38-159.65-141.465-178.644l-1.242-0.245v-142.194c0.17-1.485 0.268-3.205 0.268-4.947 0-25.333-20.537-45.869-45.869-45.869-15.113 0-28.518 7.308-36.875 18.584l-0.088 0.124c-37.959 41.276-85.815 72.863-139.832 91.048l-2.361 0.69-96.325 18.348v-183.476c-3.309-68.289-59.481-122.402-128.292-122.402-53.896 0-100.037 33.198-119.092 80.259l-0.309 0.861-91.738 266.040c-72.247 39.565-120.418 115.071-120.418 201.826 0 126.664 102.682 229.345 229.345 229.345 0.407 0 0.814-0.001 1.22-0.003h82.502c86.91 0.606 170.472 13.976 249.214 38.321l-6.108-1.625c56.047 17.556 103.887 47.623 142.109 87.064l0.084 0.087c8.393 8.961 20.298 14.543 33.506 14.543 7.882 0 15.3-1.988 21.778-5.49l-0.243 0.12zM420.262 677.345h-137.607c-1.785 0.083-3.877 0.13-5.979 0.13-75.998 0-137.607-61.609-137.607-137.607 0-58.359 36.329-108.234 87.607-128.241l0.936-0.321zM227.613 411.305l55.043-9.173h137.607v275.214zM512 392.957c86.039-15.056 163.029-42.21 233.465-79.996l-4.12 2.019v449.516l-105.498-45.869-123.846-32.109v-293.562zM420.262 310.393h-137.607zM282.655 310.393l68.803-206.41c6.331-11.559 18.411-19.266 32.292-19.266 18.975 0 34.586 14.401 36.498 32.87l0.013 0.157v192.65zM833.083 461.761c26.229 16.449 43.412 45.207 43.412 77.977s-17.183 61.527-43.029 77.753l-0.383 0.224v-155.955z" />
<glyph unicode="&#x1f4e4;" glyph-name="i-share" data-tags="share" d="M717.8 918.4c25.814 13.386 56.356 21.235 88.732 21.235 108.249 0 196.001-87.752 196.001-196.001s-87.752-196.001-196.001-196.001c-58.725 0-111.42 25.827-147.342 66.742l-0.19 0.221-244.999-127.399c2.519-11.785 3.96-25.325 3.96-39.199s-1.442-27.416-4.183-40.477l0.223 1.275 244.999-127.399c35.698 36.967 85.698 59.92 141.062 59.92 108.249 0 196.001-87.752 196.001-196.001s-87.752-196.001-196.001-196.001c-108.249 0-196.001 87.752-196.001 196.001 0 17.006 2.166 33.506 6.237 49.24l-0.298-1.361-244.999 127.399c-36.164-42.1-89.46-68.599-148.947-68.599-108.249 0-196.001 87.752-196.001 196.001s87.752 196.001 196.001 196.001c59.486 0 112.784-26.501 148.729-68.341l0.218-0.261 244.999 127.399c-2.45 11.627-3.854 24.989-3.854 38.678 0 77.59 45.086 144.651 110.488 176.413l1.165 0.511zM306.2 398.999c6.609 12.839 10.482 28.018 10.482 44.1s-3.873 31.261-10.74 44.653l0.258-0.553zM306.2 487.199c-16.497 32.226-49.475 53.899-87.517 53.899-54.124 0-97.999-43.877-97.999-97.999s43.877-97.999 97.999-97.999c38.040 0 71.020 21.675 87.259 53.349l0.258 0.553zM835.4 839.999c-11.079 4.716-23.966 7.456-37.493 7.456-54.124 0-97.999-43.877-97.999-97.999 0-46.573 32.486-85.556 76.035-95.53l0.659-0.126c6.403-1.49 13.755-2.343 21.307-2.343 54.124 0 97.999 43.877 97.999 97.999 0 40.597-24.684 75.429-59.864 90.303l-0.644 0.242zM810.901 251.999c-1.464 0.078-3.176 0.123-4.901 0.123-54.191 0-98.122-43.931-98.122-98.122 0-52.468 41.18-95.318 92.984-97.991l0.238-0.011c1.464-0.078 3.176-0.123 4.901-0.123 54.191 0 98.122 43.931 98.122 98.122 0 52.468-41.18 95.318-92.984 97.991l-0.238 0.011z" />
<glyph unicode="&#x1f4e9;" glyph-name="i-msg-open" data-tags="mail-open" d="M512 772.267c8.533 0 17.067 0 25.6-8.533l298.667-196.267 12.8-17.067-311.467-204.8c-7.042-5.327-15.947-8.533-25.6-8.533s-18.558 3.206-25.707 8.611l0.107-0.078-311.467 204.8 12.8 17.067 298.667 196.267 25.6 8.533zM938.667 533.333v0c-2.459 40.783-23.665 76.147-55.041 97.855l-0.426 0.279-298.667 200.533c-20.276 14.105-45.42 22.535-72.533 22.535s-52.257-8.43-72.954-22.812l0.421 0.277-298.667-200.533c-31.801-21.986-53.007-57.35-55.449-97.777l-0.017-0.357v-384c0-70.692 57.308-128 128-128v0h597.333c70.692 0 128 57.308 128 128v0 384zM853.333 448v-213.333l-170.667 110.933 170.667 110.933zM849.067 123.733c-7.511-12.857-21.245-21.357-36.964-21.357-0.505 0-1.008 0.009-1.508 0.026l0.073-0.002h-597.333c-0.428-0.015-0.931-0.024-1.436-0.024-15.719 0-29.453 8.501-36.855 21.156l-0.109 0.202 243.2 162.133 21.333-17.067c20.276-14.105 45.42-22.535 72.533-22.535s52.257 8.43 72.954 22.812l-0.421-0.277 25.6 17.067 238.933-162.133zM170.667 234.667v213.333l170.667-110.933-170.667-110.933z" />
<glyph unicode="&#x1f4ee;" glyph-name="i-msg" data-tags="mail" d="M123.733 750.933c22.835 23.29 54.464 37.884 89.504 38.399l0.096 0.001h597.333c70.692 0 128-57.308 128-128v0-426.667c0-70.692-57.308-128-128-128v0h-597.333c-70.692 0-128 57.308-128 128v0 426.667c0 34.133 12.8 68.267 38.4 89.6zM170.667 537.6v-302.933c0-23.564 19.103-42.667 42.667-42.667v0h597.333c23.564 0 42.667 19.103 42.667 42.667v0 302.933l-268.8-174.933c-20.276-14.105-45.42-22.535-72.533-22.535s-52.257 8.43-72.954 22.812l0.421-0.277-268.8 174.933zM853.333 640v21.333c0 23.564-19.103 42.667-42.667 42.667v0h-597.333c-23.564 0-42.667-19.103-42.667-42.667v0-21.333l315.733-213.333c7.042-5.327 15.947-8.533 25.6-8.533s18.558 3.206 25.707 8.611l-0.107-0.078 315.733 213.333z" />
<glyph unicode="&#x1f4f7;" glyph-name="i-camera" data-tags="camera" d="M415.927 796.444h192.141c17.202-0.093 32.327-8.894 41.201-22.218l0.114-0.182 40.32-60.231c27.147-40.443 72.701-66.701 124.389-66.701 0.019 0 0.040 0 0.058 0h46.289c27.492 0 49.779-22.287 49.779-49.779v0-448c0-27.492-22.287-49.779-49.779-49.779v0h-696.889c-27.492 0-49.779 22.287-49.779 49.779v0 448c0 27.492 22.287 49.779 49.779 49.779v0h46.294c0.115 0 0.251 0 0.388 0 51.478 0 96.871 26.046 123.721 65.679l0.335 0.524 39.821 61.226c9.074 13.292 24.152 21.906 41.243 21.906 0.2 0 0.402-0.001 0.601-0.003h-0.030zM415.927 895.999c-0.115 0-0.251 0-0.388 0-51.478 0-96.871-26.046-123.721-65.679l-0.335-0.524-39.821-60.729c-9.035-13.576-24.274-22.4-41.572-22.4-0.084 0-0.169 0-0.253 0.001h-46.281c-82.474 0-149.334-66.86-149.334-149.334v0-448c0-82.474 66.86-149.334 149.334-149.334v0h696.889c82.474 0 149.334 66.86 149.334 149.334v0 448c0 82.474-66.86 149.334-149.334 149.334v0h-46.294c-0.023 0-0.048 0-0.074 0-17.090 0-32.167 8.611-41.13 21.731l-0.111 0.171-40.32 60.729c-27.147 40.443-72.701 66.701-124.389 66.701-0.019 0-0.040 0-0.058 0h-192.139zM511.998 497.778c-54.982 0-99.555-44.573-99.555-99.555s44.573-99.555 99.555-99.555v0c54.982 0 99.555 44.573 99.555 99.555s-44.573 99.555-99.555 99.555v0zM371.127 539.093c36.052 36.052 85.858 58.351 140.871 58.351 110.027 0 199.222-89.195 199.222-199.222 0-55.015-22.299-104.819-58.351-140.871v0c-36.052-36.052-85.858-58.351-140.871-58.351-110.027 0-199.222 89.195-199.222 199.222 0 55.015 22.299 104.819 58.351 140.871v0z" />
<glyph unicode="&#x1f507;" glyph-name="i-volume-off" data-tags="volume-off" d="M465.774 771.579l-217.26-217.26c-8.352-8.517-19.963-13.812-32.81-13.868h-73.509v-184.903h73.499c12.689-0.186 24.111-5.457 32.351-13.86l0.008-0.008 217.722-217.26v647.157zM400.596 836.757c16.711 16.615 39.745 26.885 65.179 26.885 50.922 0 92.23-41.171 92.451-92.042v-647.179c-0.221-50.892-41.527-92.063-92.451-92.063-25.433 0-48.469 10.27-65.183 26.889l0.004-0.004-204.317 203.855h-54.084c-51.059 0-92.451 41.392-92.451 92.451v0 184.903c0 51.059 41.392 92.451 92.451 92.451v0h54.084l204.779 203.855zM710.77 572.809c8.331 8.171 19.756 13.214 32.358 13.214s24.027-5.043 32.366-13.221l-0.008 0.008 60.094-59.631 60.094 60.094c8.521 9.764 20.987 15.898 34.886 15.898 25.529 0 46.226-20.696 46.226-46.226 0-14.13-6.339-26.779-16.329-35.257l-0.066-0.055-59.168-59.631 60.094-60.094c6.785-7.993 10.912-18.43 10.912-29.83 0-25.529-20.696-46.226-46.226-46.226-11.63 0-22.258 4.296-30.382 11.386l0.055-0.047-60.094 59.168-60.094-60.094c-7.993-6.785-18.43-10.912-29.83-10.912-25.529 0-46.226 20.696-46.226 46.226 0 11.63 4.296 22.258 11.386 30.382l-0.047-0.055 59.168 60.094-60.094 60.094c-8.171 8.331-13.214 19.756-13.214 32.358s5.043 24.027 13.221 32.366l-0.008-0.008z" />
<glyph unicode="&#x1f50a;" glyph-name="i-volume-up" data-tags="volume-up" d="M465.824 771.579l-217.26-217.26c-8.352-8.517-19.963-13.812-32.81-13.868h-73.509v-184.903h73.499c12.689-0.186 24.111-5.457 32.351-13.86l0.008-0.008 217.722-217.26v647.157zM400.646 836.757c16.711 16.615 39.745 26.885 65.179 26.885 50.922 0 92.23-41.171 92.451-92.042v-647.179c-0.221-50.892-41.527-92.063-92.451-92.063-25.433 0-48.469 10.27-65.183 26.889l0.004-0.004-204.317 203.855h-54.084c-51.059 0-92.451 41.392-92.451 92.451v0 184.903c0 51.059 41.392 92.451 92.451 92.451v0h54.084l204.779 203.855zM773.686 774.814c8.355 8.308 19.873 13.442 32.589 13.442s24.234-5.135 32.591-13.444l-0.002 0.002c83.622-83.647 135.342-199.191 135.342-326.814s-51.72-243.168-135.344-326.816l0.001 0.001c-8.030-6.909-18.558-11.115-30.068-11.115-25.529 0-46.226 20.696-46.226 46.226 0 11.51 4.207 22.038 11.167 30.129l-0.051-0.061c67.008 66.935 108.459 159.446 108.459 261.636s-41.45 194.701-108.455 261.633l-0.003 0.003c-8.308 8.355-13.442 19.873-13.442 32.589s5.135 24.234 13.444 32.591l-0.002-0.002zM642.868 643.997c8.355 8.308 19.873 13.442 32.589 13.442s24.234-5.135 32.591-13.444l-0.002 0.002c50.119-50.179 81.113-119.468 81.113-195.997s-30.994-145.817-81.116-195.999l0.003 0.003c-8.529-9.916-21.091-16.158-35.11-16.158-25.529 0-46.226 20.696-46.226 46.226 0 14.019 6.242 26.581 16.097 35.059l0.061 0.051c33.504 33.468 54.229 79.723 54.229 130.819s-20.726 97.35-54.228 130.816l-0.002 0.002c-8.308 8.355-13.442 19.873-13.442 32.589s5.135 24.234 13.444 32.591l-0.002-0.002z" />
<glyph unicode="&#x1f50d;" glyph-name="i-search" data-tags="search" d="M421.32 813.829c-151.961 0-275.149-123.188-275.149-275.149s123.188-275.149 275.149-275.149v0c151.961 0 275.149 123.188 275.149 275.149s-123.188 275.149-275.149 275.149v0zM161.762 798.238c66.591 67.651 159.156 109.568 261.512 109.568 202.614 0 366.865-164.251 366.865-366.865 0-86.245-29.76-165.54-79.572-228.174l0.576 0.75 247.175-246.717c8.333-8.333 13.487-19.844 13.487-32.559 0-25.431-20.616-46.046-46.046-46.046-12.715 0-24.227 5.154-32.559 13.487v0l-246.717 247.175c-61.885-49.236-141.178-78.997-227.423-78.997-202.614 0-366.865 164.251-366.865 366.865 0 102.355 41.917 194.919 109.521 261.465l0.047 0.046z" />
<glyph unicode="&#x1f512;" glyph-name="i-lock-closed" data-tags="lock-closed" d="M340.189 865.259c44.239 43.399 104.91 70.185 171.836 70.185 134.343 0 243.479-107.934 245.42-241.816l0.002-0.183v-147.268h49.089c81.334 0 147.268-65.934 147.268-147.268v0-294.536c0-81.334-65.934-147.268-147.268-147.268v0h-589.070c-81.334 0-147.268 65.934-147.268 147.268v0 294.536c0 81.334 65.934 147.268 147.268 147.268v0h49.089v147.268c0.99 67.373 28.974 128.025 73.593 171.773l0.041 0.040zM364.732 546.179h294.536v147.268c0 81.334-65.934 147.268-147.268 147.268s-147.268-65.934-147.268-147.268v0-147.268zM217.464 448c-27.112 0-49.089-21.979-49.089-49.089v0-294.536c0-27.112 21.979-49.089 49.089-49.089v0h589.070c27.112 0 49.089 21.979 49.089 49.089v0 294.536c0 27.112-21.979 49.089-49.089 49.089v0h-589.070zM512 349.821c29.454 0 49.089-19.637 49.089-49.089v-98.179c0-27.112-21.979-49.089-49.089-49.089s-49.089 21.979-49.089 49.089v0 98.179c0 29.454 19.637 49.089 49.089 49.089z" />
<glyph unicode="&#x1f513;" glyph-name="i-lock-open" data-tags="lock-open" d="M512 840.533c-81.296 0-147.2-65.904-147.2-147.2v0-147.2h441.6c81.296 0 147.2-65.904 147.2-147.2v0-294.4c0-81.296-65.904-147.2-147.2-147.2v0h-588.8c-81.296 0-147.2 65.904-147.2 147.2v0 294.4c0 81.296 65.904 147.2 147.2 147.2v0h49.067v147.2c0 135.495 109.839 245.333 245.333 245.333s245.333-109.839 245.333-245.333v0c0-27.098-21.969-49.067-49.067-49.067s-49.067 21.969-49.067 49.067v0c0 81.296-65.904 147.2-147.2 147.2v0zM217.6 448c-27.098 0-49.067-21.969-49.067-49.067v0-294.4c0-27.098 21.969-49.067 49.067-49.067v0h588.8c27.098 0 49.067 21.969 49.067 49.067v0 294.4c0 27.098-21.969 49.067-49.067 49.067v0h-588.8zM512 349.867c29.44 0 49.067-19.627 49.067-49.067v-98.133c0-27.098-21.969-49.067-49.067-49.067s-49.067 21.969-49.067 49.067v0 98.133c0 29.44 19.627 49.067 49.067 49.067z" />
<glyph unicode="&#x1f514;" glyph-name="i-notification" data-tags="bell (1)" d="M407.739 895.568c26.63 26.589 63.398 43.034 104.007 43.034 75.368 0 137.507-56.64 146.17-129.678l0.066-0.695c117.524-56.238 197.252-174.206 197.252-310.795 0-0.104 0-0.208 0-0.31v0.016-155.055c0-0.049 0-0.107 0-0.165 0-13.916 5.624-26.518 14.722-35.657l68.691-68.691c8.965-8.893 14.515-21.218 14.515-34.838 0-27.027-21.851-48.951-48.85-49.066h-196.283c0-108.397-87.874-196.271-196.271-196.271s-196.271 87.874-196.271 196.271v0h-196.271c-26.801 0.388-48.377 22.205-48.377 49.062 0 13.38 5.354 25.509 14.039 34.36l-0.009-0.009 68.695 69.186c9.813 9.813 14.72 22.571 14.72 35.819v155.055c0 0.088 0 0.19 0 0.294 0 136.589 79.728 254.557 195.186 309.903l2.066 0.892c4.053 34.376 19.412 64.574 42.197 87.34l0.001 0.001zM413.627 153.666c0-54.198 43.937-98.135 98.135-98.135s98.135 43.937 98.135 98.135v0h-196.271zM511.762 840.613c-27.1 0-49.067-21.969-49.067-49.067v0-16.683c-0.088-21.219-13.63-39.252-32.533-46.016l-0.342-0.107c-96.018-34.743-163.396-125.129-163.396-231.248 0-0.123 0-0.246 0-0.369v0.019-155.055c0-32.875-10.795-64.279-30.421-90.285h551.519c-18.983 24.709-30.421 56.076-30.421 90.114 0 0.060 0 0.12 0 0.181v-0.010 155.055c0 0.104 0 0.227 0 0.35 0 106.122-67.378 196.505-161.688 230.708l-1.707 0.54c-19.245 6.871-32.789 24.904-32.875 46.113v16.694c0 27.1-21.969 49.067-49.067 49.067v0z" />
<glyph unicode="&#x1f516;" glyph-name="i-bookmark" data-tags="bookmark-alt" d="M108.799 851.201c26.641 27.172 63.542 44.198 104.422 44.799l0.112 0.001h597.334c82.474 0 149.334-66.86 149.334-149.334v0-597.334c0-82.474-66.86-149.334-149.334-149.334v0h-597.334c-82.474 0-149.334 66.86-149.334 149.334v0 597.334c0 39.821 14.934 79.645 44.8 104.534zM661.333 796.446h-298.666v-467.911l129.421 64.711c9.955 4.979 29.866 4.979 39.821 0l129.421-64.711v467.911zM263.11 796.446h-49.779c-27.492 0-49.779-22.287-49.779-49.779v0-597.334c0-27.492 22.287-49.779 49.779-49.779v0h597.334c27.492 0 49.779 22.287 49.779 49.779v0 597.334c0 27.492-22.287 49.779-49.779 49.779v0h-49.779v-547.555c-0.461-27.136-22.568-48.959-49.771-48.959-7.206 0-14.053 1.53-20.234 4.284l0.317-0.126-179.2 94.579-179.2-99.555c-5.912-2.675-12.821-4.236-20.091-4.236-27.492 0-49.779 22.287-49.779 49.779 0 1.492 0.066 2.966 0.194 4.424l-0.013-0.19v547.555z" />
<glyph unicode="&#x1f535;" glyph-name="i-dots-vertical" data-tags="dots-vertical" d="M431.548 926.675c21.339 21.338 50.278 33.326 80.452 33.326s59.114-11.986 80.452-33.326c21.339-21.338 33.326-50.277 33.326-80.453s-11.986-59.116-33.326-80.453c-21.339-21.338-50.278-33.326-80.452-33.326s-59.114 11.986-80.452 33.326c-21.339 21.338-33.326 50.277-33.326 80.453s11.986 59.116 33.326 80.453zM431.548 528.452c21.339 21.339 50.278 33.326 80.452 33.326s59.114-11.986 80.452-33.326c21.339-21.339 33.326-50.278 33.326-80.452s-11.986-59.114-33.326-80.452c-21.339-21.339-50.278-33.326-80.452-33.326s-59.114 11.986-80.452 33.326c-21.339 21.339-33.326 50.278-33.326 80.452s11.986 59.114 33.326 80.452zM431.548 130.23c21.339 21.339 50.278 33.326 80.452 33.326s59.114-11.986 80.452-33.326c21.339-21.339 33.326-50.278 33.326-80.452s-11.986-59.114-33.326-80.452c-21.339-21.339-50.278-33.326-80.452-33.326s-59.114 11.986-80.452 33.326c-21.339 21.339-33.326 50.278-33.326 80.452s11.986 59.114 33.326 80.452z" />
<glyph unicode="&#x1f53c;" glyph-name="i-upload" data-tags="upload" d="M477.151 881.116c8.972 8.8 21.277 14.231 34.849 14.231s25.877-5.431 34.856-14.239l199.126-199.126c6.215-8.216 9.957-18.607 9.957-29.87 0-27.494-22.289-49.783-49.783-49.783-11.263 0-21.654 3.74-29.995 10.047l0.125-0.092-114.501 113.506v-476.925c0-27.494-22.289-49.783-49.783-49.783s-49.783 22.289-49.783 49.783v0 477.421l-114.501-114.501c-8.608-7.307-19.849-11.752-32.125-11.752-27.494 0-49.783 22.289-49.783 49.783 0 12.525 4.627 23.97 12.261 32.721l-0.051-0.059 199.133 199.133zM113.733 298.65c27.494 0 49.783-22.289 49.783-49.783v0-49.783c0-54.988 44.577-99.567 99.567-99.567v0h497.833c54.988 0 99.567 44.577 99.567 99.567v0 49.783c0 27.494 22.289 49.783 49.783 49.783s49.783-22.289 49.783-49.783v0-49.783c0-109.979-89.154-199.133-199.133-199.133v0h-497.833c-109.979 0-199.133 89.154-199.133 199.133v0 49.783c0 27.494 22.289 49.783 49.783 49.783v0z" />
<glyph unicode="&#x1f5bc;" glyph-name="i-photograph" data-tags="photograph (2)" d="M108.8 851.2c26.641 27.172 63.542 44.198 104.422 44.799l0.112 0.001h597.334c82.474 0 149.334-66.86 149.334-149.334v0-597.334c0-82.474-66.86-149.334-149.334-149.334v0h-597.334c-82.474 0-149.334 66.86-149.334 149.334v0 597.334c0 39.821 14.934 79.645 44.8 104.534zM163.555 228.979v-79.645c0-27.492 22.287-49.779 49.779-49.779v0h597.334c27.492 0 49.779 22.287 49.779 49.779v0 179.2l-64.711 64.711c-8.972 8.798-21.275 14.229-34.845 14.229s-25.873-5.431-34.852-14.237l-44.791-44.791 64.711-64.711c6.215-8.216 9.955-18.605 9.955-29.866 0-27.492-22.287-49.779-49.779-49.779-11.261 0-21.652 3.74-29.991 10.047l0.125-0.090-228.979 228.979c-8.972 8.798-21.275 14.229-34.845 14.229s-25.873-5.431-34.854-14.237l-214.036-214.036zM611.555 418.134l44.8 44.8c26.933 26.494 63.907 42.854 104.703 42.854 38.235 0 73.112-14.368 99.529-38.001l-0.143 0.126v278.755c0 27.492-22.287 49.779-49.779 49.779v0h-597.334c-27.492 0-49.779-22.287-49.779-49.779v0-378.311l144.355 144.355c26.913 26.395 63.822 42.688 104.534 42.688s77.619-16.292 104.557-42.712l-0.025 0.024 94.579-94.579zM561.779 647.111c0 29.866 19.911 49.779 49.779 49.779 27.492 0 49.779-22.287 49.779-49.779s-22.287-49.779-49.779-49.779v0c-27.492 0-49.779 22.287-49.779 49.779v0z" />
<glyph unicode="&#x1f5d1;" glyph-name="i-trash" data-tags="trash (1)" d="M344.683 909.717c17.683 17.787 42.133 28.831 69.162 28.949h196.291c54.198 0 98.133-43.935 98.133-98.133v0-98.133h196.267c27.098 0 49.067-21.969 49.067-49.067s-21.969-49.067-49.067-49.067v0h-3.435l-39.253-550.037c-5.548-76.74-69.168-136.896-146.838-136.896-0.126 0-0.255 0-0.381 0h-405.272c-77.616 0.071-141.164 60.201-146.681 136.419l-0.028 0.477-39.744 550.037h-3.435c-27.098 0-49.067 21.969-49.067 49.067s21.969 49.067 49.067 49.067v0h196.267v98.133c0.118 27.051 11.162 51.501 28.945 69.18l0.004 0.004zM413.867 742.4h196.267v98.133h-196.267v-98.133zM221.035 644.267l39.253-543.168c1.85-25.579 23.057-45.632 48.946-45.632 0.043 0 0.086 0 0.126 0h405.775c0.035 0 0.078 0 0.121 0 25.889 0 47.098 20.053 48.938 45.474l0.010 0.158 38.763 543.168h-581.931zM413.867 546.133c27.098 0 49.067-21.969 49.067-49.067v0-294.4c0-27.098-21.969-49.067-49.067-49.067s-49.067 21.969-49.067 49.067v0 294.4c0 27.098 21.969 49.067 49.067 49.067v0zM610.133 546.133c27.098 0 49.067-21.969 49.067-49.067v0-294.4c0-27.098-21.969-49.067-49.067-49.067s-49.067 21.969-49.067 49.067v0 294.4c0 27.098 21.969 49.067 49.067 49.067v0z" />
<glyph unicode="&#x1f611;" glyph-name="i-zoom-out" data-tags="zoom-out" d="M427.631 788.368c-141.385 0-256-114.615-256-256s114.615-256 256-256v0c141.385 0 256 114.615 256 256s-114.615 256-256 256v0zM186.137 773.862c61.957 62.943 148.080 101.943 243.312 101.943 188.513 0 341.333-152.82 341.333-341.333 0-80.243-27.689-154.019-74.034-212.294l0.536 0.698 229.973-229.547c7.753-7.753 12.548-18.463 12.548-30.293 0-23.661-19.181-42.841-42.841-42.841-11.83 0-22.541 4.795-30.293 12.548v0l-229.547 229.973c-57.578-45.809-131.353-73.499-211.596-73.499-188.513 0-341.333 152.82-341.333 341.333 0 95.232 39 181.354 101.899 243.268l0.044 0.043zM256.964 532.368c0 23.564 19.103 42.667 42.667 42.667v0h256c23.564 0 42.667-19.103 42.667-42.667s-19.103-42.667-42.667-42.667v0h-256c-23.564 0-42.667 19.103-42.667 42.667v0z" />
<glyph unicode="&#x1f633;" glyph-name="i-zoom-in" data-tags="zoom-in" d="M427.631 788.368c-141.385 0-256-114.615-256-256s114.615-256 256-256v0c141.385 0 256 114.615 256 256s-114.615 256-256 256v0zM186.137 773.862c61.957 62.943 148.080 101.943 243.312 101.943 188.513 0 341.333-152.82 341.333-341.333 0-80.243-27.689-154.019-74.034-212.294l0.536 0.698 229.973-229.547c7.753-7.753 12.548-18.463 12.548-30.293 0-23.661-19.181-42.841-42.841-42.841-11.83 0-22.541 4.795-30.293 12.548v0l-229.547 229.973c-57.578-45.809-131.353-73.499-211.596-73.499-188.513 0-341.333 152.82-341.333 341.333 0 95.232 39 181.354 101.899 243.268l0.044 0.043zM427.631 703.035c23.564 0 42.667-19.103 42.667-42.667v0-85.333h85.333c23.564 0 42.667-19.103 42.667-42.667s-19.103-42.667-42.667-42.667v0h-85.333v-85.333c0-23.564-19.103-42.667-42.667-42.667s-42.667 19.103-42.667 42.667v0 85.333h-85.333c-23.564 0-42.667 19.103-42.667 42.667s19.103 42.667 42.667 42.667v0h85.333v85.333c0 23.564 19.103 42.667 42.667 42.667v0z" />
<glyph unicode="&#x1f642;" glyph-name="i-emoji-happy" data-tags="Vector (Stroke)-7" d="M506.572 852.148c-226.216 0-409.6-183.384-409.6-409.6s183.384-409.6 409.6-409.6v0c226.216 0 409.6 183.384 409.6 409.6s-183.384 409.6-409.6 409.6v0zM144.537 804.583c93.085 95.407 222.931 154.578 366.598 154.578 282.77 0 512-229.23 512-512 0-143.666-59.172-273.512-154.474-366.496l-0.104-0.102c-91.979-88.925-217.436-143.724-355.692-143.724-282.77 0-512 229.23-512 512 0 138.256 54.799 263.713 143.863 355.836l-0.138-0.144zM301.772 544.948c0 28.277 22.923 51.2 51.2 51.2v0h0.512c28.277 0 51.2-22.923 51.2-51.2s-22.923-51.2-51.2-51.2v0h-0.512c-28.277 0-51.2 22.923-51.2 51.2v0zM608.972 544.948c0 28.277 22.923 51.2 51.2 51.2v0h0.512c28.277 0 51.2-22.923 51.2-51.2s-22.923-51.2-51.2-51.2v0h-0.512c-28.277 0-51.2 22.923-51.2 51.2v0zM325.58 333.953c9.265 9.262 22.063 14.991 36.198 14.991s26.934-5.729 36.199-14.991v0c27.795-27.786 66.188-44.972 108.595-44.972s80.801 17.186 108.596 44.972v0c9.323 9.644 22.376 15.631 36.828 15.631 28.277 0 51.2-22.923 51.2-51.2 0-14.451-5.987-27.504-15.616-36.814l-0.014-0.014c-46.324-46.311-110.313-74.953-180.992-74.953s-134.668 28.643-180.993 74.954l0.001-0.001c-9.262 9.265-14.991 22.063-14.991 36.198s5.729 26.934 14.991 36.199v0z" />
<glyph unicode="&#x1f6ab;" glyph-name="i-disable" data-tags="Vector (Stroke)-4" d="M149.558 809.631c92.734 93.139 221.061 150.775 362.85 150.775 282.77 0 512-229.23 512-512 0-141.789-57.636-270.116-150.757-362.832l-0.018-0.018c-92.654-92.655-220.655-149.963-362.040-149.963-282.77 0-512.001 229.23-512.001 512.001 0 141.384 57.307 269.384 149.96 362.038v0zM260.442 771.155l574.72-574.72-0.68-0.903c54.334 69.504 86.715 157 86.715 252.058 0 113.109-45.847 215.511-119.971 289.635v0c-74.125 74.122-176.526 119.967-289.635 119.967-95.058 0-182.553-32.38-251.154-86.032zM762.755 124.027l-574.725 574.72c-53.652-68.601-86.032-156.096-86.032-251.154 0-113.109 45.845-215.51 119.967-289.635v0c74.123-74.123 176.523-119.969 289.631-119.969 95.060 0 182.557 32.383 252.061 86.719l-0.903-0.68z" />
<glyph unicode="&#x1f6d2;" glyph-name="i-shopping-cart" data-tags="shopping-cart" d="M21.333 889.6c0 27.098 21.969 49.067 49.067 49.067v0h98.133c23.684-0.015 43.44-16.806 48.030-39.133l0.055-0.317 11.776-58.683h725.205c27.088-0.015 49.040-21.977 49.040-49.067 0-7.994-1.913-15.543-5.304-22.213l0.128 0.278-196.267-392.533c-8.23-16.208-24.773-27.124-43.865-27.135h-470.354l-98.133-98.133h568.486c0.005 0 0.014 0 0.020 0 81.296 0 147.2-65.904 147.2-147.2s-65.904-147.2-147.2-147.2c-81.296 0-147.2 65.904-147.2 147.2 0 17.588 3.084 34.456 8.742 50.092l-0.324-1.025h-213.146c5.326-14.601 8.407-31.46 8.407-49.036 0-81.296-65.904-147.2-147.2-147.2s-147.2 65.904-147.2 147.2c0 23.684 5.593 46.060 15.53 65.882l-0.385-0.848c-48.037 31.893-62.217 104.415-15.113 151.519l93.914 93.963-85.082 425.457h-57.899c-27.098 0-49.067 21.969-49.067 49.067v0zM306.901 448h420.108l147.2 294.4h-626.188l58.88-294.4zM266.667 153.6c-27.098 0-49.067-21.969-49.067-49.067s21.969-49.067 49.067-49.067v0c27.098 0 49.067 21.969 49.067 49.067s-21.969 49.067-49.067 49.067v0zM757.333 153.6c-27.098 0-49.067-21.969-49.067-49.067s21.969-49.067 49.067-49.067v0c27.098 0 49.067 21.969 49.067 49.067s-21.969 49.067-49.067 49.067v0z" />
<glyph unicode="&#x1f6e1;" glyph-name="i-shield-check" data-tags="shield-check" d="M477.587 929.789c8.86 8.69 21.011 14.053 34.413 14.053s25.553-5.363 34.422-14.061l-0.009 0.009c103.24-98.323 245.811-147.486 388.381-137.655 19.665 0 44.246-14.748 49.163-34.413 13.245-48.587 20.856-104.371 20.856-161.935 0-297.514-203.291-547.548-478.541-618.77l-4.437-0.974c-2.955-0.632-6.353-0.994-9.833-0.994s-6.876 0.362-10.153 1.049l0.32-0.057c-277.361 73.829-478.373 322.724-478.373 618.564 0 57.991 7.723 114.179 22.2 167.589l-1.033-4.477c6.452 20.139 25.010 34.465 46.913 34.465 0.79 0 1.577-0.018 2.359-0.056l-0.11 0.004c6.707-0.298 14.574-0.468 22.48-0.468 138.966 0 265.69 52.418 361.479 138.558l-0.495-0.437zM128.536 693.811c-5.854-29.868-9.202-64.212-9.202-99.338 0-245.916 164.144-453.492 388.845-519.148l3.821-0.957c228.524 66.61 392.666 274.188 392.666 520.104 0 35.125-3.349 69.47-9.746 102.732l0.543-3.392c-145.742 3.042-278.922 54.408-384.765 138.655l1.301-1c-104.542-83.245-237.722-134.612-382.789-137.643l-0.677-0.012zM693.901 580.738c19.665-19.665 19.665-49.163 0-68.827l-196.649-196.649c-8.86-8.69-21.011-14.053-34.413-14.053s-25.553 5.363-34.422 14.061l-98.316 98.316c-11.994 9.065-19.665 23.301-19.665 39.329 0 27.152 22.011 49.163 49.163 49.163 16.029 0 30.265-7.671 39.24-19.541l0.090-0.123 63.911-63.911 162.236 162.236c8.86 8.69 21.011 14.053 34.413 14.053s25.553-5.363 34.422-14.061l-0.009 0.009z" />
</font>
</defs>
</svg>
